<svg width="371" height="258" viewBox="0 0 371 258" fill="none" xmlns="http://www.w3.org/2000/svg">
<g clip-path="url(#clip0_36_1539)">
<mask id="mask0_36_1539" style="mask-type:luminance" maskUnits="userSpaceOnUse" x="0" y="0" width="371" height="258">
<path d="M371 0H0V258H371V0Z" fill="white"/>
</mask>
<g mask="url(#mask0_36_1539)">
<mask id="mask1_36_1539" style="mask-type:luminance" maskUnits="userSpaceOnUse" x="12" y="-18" width="362" height="298">
<path d="M12.6372 -17.2955H373.203V279.882H12.6372V-17.2955Z" fill="white"/>
</mask>
<g mask="url(#mask1_36_1539)">
<mask id="mask2_36_1539" style="mask-type:luminance" maskUnits="userSpaceOnUse" x="12" y="-18" width="362" height="298">
<path d="M12.6372 -17.2955H373.203V279.882H12.6372V-17.2955Z" fill="white"/>
</mask>
<g mask="url(#mask2_36_1539)">
<mask id="mask3_36_1539" style="mask-type:luminance" maskUnits="userSpaceOnUse" x="16" y="20" width="329" height="227">
<path d="M333.662 20.7432H26.6983C20.7912 20.7432 16.0024 26.065 16.0024 32.6303V234.117C16.0024 240.682 20.7912 246.004 26.6983 246.004H333.662C339.569 246.004 344.357 240.682 344.357 234.117V32.6303C344.357 26.065 339.569 20.7432 333.662 20.7432Z" fill="white"/>
</mask>
<g mask="url(#mask3_36_1539)">
<mask id="mask4_36_1539" style="mask-type:luminance" maskUnits="userSpaceOnUse" x="142" y="19" width="207" height="232">
<path d="M142.158 19.6294H348.401V250.834H142.158V19.6294Z" fill="white"/>
</mask>
<g mask="url(#mask4_36_1539)">
<path d="M348.204 247.713H207.186C180.901 250.165 149.853 197.54 182.999 167.751C227.534 127.728 192.432 95.5738 166.718 85.3194C144.653 76.5199 129.354 43.9094 168.39 19.6294H348.204V247.713Z" fill="#E8E5A3"/>
<path d="M347.227 181.902C347.227 189.313 342.368 195.32 336.373 195.32C330.379 195.32 325.52 189.313 325.52 181.902C325.52 174.492 330.379 168.484 336.373 168.484C342.368 168.484 347.227 174.492 347.227 181.902Z" fill="url(#paint0_linear_36_1539)"/>
<g opacity="0.194479">
<path d="M249.298 129.768C249.298 144.242 239.808 155.974 228.101 155.974C216.394 155.974 206.904 144.242 206.904 129.768C206.904 115.295 216.394 103.563 228.101 103.563C239.808 103.563 249.298 115.295 249.298 129.768Z" fill="white"/>
</g>
<g opacity="0.37399">
<path d="M173.022 124.571C173.271 102.174 184.685 92.3674 199.071 92.3674C213.148 92.3674 224.609 106.174 225.096 123.431C225.691 123.301 226.303 123.229 226.928 123.229C232.723 123.229 237.42 129.037 237.42 136.201C237.42 136.9 237.374 137.586 237.288 138.256C240.888 139.295 243.57 143.286 243.57 148.053C243.57 148.458 243.549 148.856 243.511 149.248C249.022 151.623 252.977 158.099 252.977 165.721C252.977 175.355 246.66 183.165 238.868 183.165H161.465C153.673 183.165 147.355 175.355 147.355 165.721C147.355 158.099 151.311 151.623 156.821 149.248C156.784 148.856 156.762 148.458 156.762 148.053C156.762 143.286 159.445 139.295 163.045 138.256C162.959 137.586 162.913 136.9 162.913 136.201C162.913 129.426 165.579 124.165 173.022 124.571Z" fill="white"/>
</g>
<g opacity="0.48211">
<path d="M237.016 144.471C235.234 134.825 228.257 127.626 219.914 127.626C210.224 127.626 202.368 137.338 202.368 149.319C202.368 161.299 210.224 171.011 219.914 171.011C221.925 171.011 223.855 170.588 225.654 169.818C226.829 170.296 228.083 170.559 229.386 170.559C235.976 170.559 241.316 163.955 241.316 155.808C241.316 151.25 239.644 147.177 237.016 144.471Z" fill="white"/>
</g>
<path d="M167.959 166.486C167.959 166.486 172.85 158.931 201.351 151.707C208.41 149.917 215.993 151.154 221.894 155.204C229.004 160.085 233.481 166.877 240.78 166.486C252.108 165.88 267.643 156.773 280.59 165.576C293.536 174.378 302.274 175.592 312.63 163.754C322.987 151.916 353.492 172.422 353.492 172.422L350.488 191.193L164.075 192.59L167.959 166.486Z" fill="#1A6749"/>
<path d="M181.776 159.229C181.776 159.229 218.788 166.777 235.684 192.725C196.259 194.612 164.075 192.725 164.075 192.725V159.229H181.776Z" fill="#397705"/>
<path d="M256.399 193.043C256.399 193.043 282.411 169.324 350.065 167.982C350.427 195.266 350.065 212.709 350.065 212.709C350.065 212.709 276.298 221.221 256.399 193.043Z" fill="#347200"/>
<path d="M236.306 189.594C236.306 189.594 295.08 178.599 340.504 213.987C319.242 220.936 260.705 250.661 236.306 189.594Z" fill="#397705"/>
<g opacity="0.51498">
<path d="M194.812 47.1981C193.937 43.8721 190.85 41.4145 187.177 41.4145C186.248 41.4145 185.358 41.5726 184.53 41.8608C183.553 37.5262 180.338 34.3446 176.521 34.3446C173.151 34.3446 170.252 36.8237 168.944 40.385C168.402 40.2186 167.835 40.1289 167.25 40.1289C163.819 40.1289 160.964 43.1743 160.355 47.1981H194.812Z" fill="white"/>
</g>
</g>
<mask id="mask5_36_1539" style="mask-type:luminance" maskUnits="userSpaceOnUse" x="213" y="168" width="41" height="39">
<path d="M213.514 168.738H253.897V206.776H213.514V168.738Z" fill="white"/>
</mask>
<g mask="url(#mask5_36_1539)">
<path d="M249.812 197.556C251.249 197.19 252.695 196.233 252.829 194.631C252.963 193.03 251.875 191.271 250.327 190.587C248.778 189.903 246.919 190.358 246.05 191.635C247.091 189.915 246.764 187.319 245.172 185.753C243.58 184.186 240.794 184.027 239.53 185.578C238.538 181.489 234.334 178.107 230.233 178.1C226.131 178.092 222.701 181.467 222.599 185.553C223.126 184.769 222.407 183.585 221.549 182.985C219.559 181.593 216.694 181.936 215.427 183.718C214.159 185.5 214.767 188.39 216.643 189.942C217.916 190.994 219.554 191.371 221.114 191.711C225.421 192.648 229.73 193.585 234.037 194.523C239.411 195.693 244.801 196.864 250.205 197.394" fill="#255B51"/>
<path d="M223.246 174.636C223.246 174.636 224.622 174.968 225.562 175.388C225.977 175.574 226.212 176.15 226.069 176.63L225.549 178.373C225.516 178.482 225.557 178.615 225.646 178.68C225.745 178.753 225.865 178.712 225.906 178.59L226.736 176.137C226.736 176.137 227.806 177.239 228.513 178.059C228.805 178.398 228.922 178.903 228.808 179.337L227.912 182.74C227.885 182.841 227.925 182.959 228.004 183.018C228.1 183.088 228.215 183.045 228.25 182.925L229.335 179.172C229.335 179.172 230.166 180.386 230.677 181.142C230.909 181.485 230.95 181.954 230.778 182.297L229.089 185.663C229.048 185.745 229.057 185.856 229.111 185.939C229.194 186.065 229.342 186.07 229.409 185.951L231.434 182.322C231.434 182.322 232.009 182.687 233.002 185.026C233.285 185.693 233.15 186.466 232.686 186.834L230.969 188.192C230.879 188.263 230.854 188.416 230.912 188.544C230.98 188.692 231.128 188.749 231.233 188.667L233.678 186.746C233.678 186.746 234.262 188.559 233.685 189.637C233.108 190.715 232.865 192.245 231.75 192.006C230.634 191.767 229.535 191.239 229.535 191.239L223.348 176.434L223.246 174.636Z" fill="#79B638"/>
<path d="M229.67 191.957L223.217 174.729C223.217 174.729 222.536 176.191 222.177 177.402C222.004 177.985 222.184 178.69 222.61 179.109C223.173 179.663 223.957 180.424 224.334 180.742C224.429 180.822 224.478 180.967 224.454 181.097C224.42 181.283 224.257 181.363 224.116 181.263C223.455 180.795 221.815 179.606 221.717 179.267C221.717 179.267 221.734 181.224 221.799 182.393C221.827 182.882 222.066 183.341 222.421 183.581C223.206 184.113 224.671 185.066 225.497 185.354C225.584 185.385 225.649 185.49 225.649 185.602C225.649 185.749 225.542 185.843 225.429 185.795C224.766 185.515 222.8 184.66 222.102 184.079C222.102 184.079 222.311 185.685 222.464 186.751C222.524 187.166 222.754 187.531 223.065 187.702C223.748 188.08 225.045 188.632 226.461 188.39C226.588 188.368 226.719 188.469 226.77 188.629C226.835 188.833 226.744 189.042 226.58 189.062C225.773 189.159 223.622 189.294 222.611 188.15C222.611 188.15 223.654 193.44 225.715 194.143C227.777 194.845 228.318 195.756 229.67 191.957Z" fill="#79B638"/>
<path d="M243.839 175.796C243.83 175.799 243.821 175.801 243.812 175.804C243.691 175.839 243.553 175.872 243.39 175.902C243.004 175.973 242.48 176.026 241.724 176.045C240.038 176.087 239.888 181.208 239.87 182.306C239.868 182.419 239.81 182.52 239.728 182.549C239.637 182.583 239.546 182.516 239.52 182.395C238.975 179.863 240.697 175.773 240.697 175.773C240.494 175.694 239.586 175.902 238.85 176.094C238.11 176.286 237.519 177.109 237.4 178.124C237.1 180.676 237.639 184.123 237.78 184.889C237.798 184.986 237.811 185.127 237.758 185.203C237.697 185.289 237.641 185.311 237.59 185.278C237.558 185.257 237.528 185.215 237.501 185.152C236.127 181.972 237.265 176.462 237.265 176.462C236.823 176.525 235.6 177.662 234.905 178.322C234.559 178.652 234.36 179.2 234.382 179.759C234.466 181.9 235.578 185.524 235.939 186.516C235.997 186.674 236.077 186.781 235.97 186.894C235.884 186.985 235.773 186.999 235.684 186.942C235.658 186.925 235.633 186.906 235.614 186.875C233.762 183.826 233.977 179.166 233.977 179.166C233.54 179.467 232.486 181.461 231.961 182.518C231.709 183.027 231.616 183.643 231.703 184.221C232.07 186.654 233.688 188.57 234.327 189.259C234.442 189.383 234.435 189.586 234.311 189.712C234.221 189.803 234.104 189.821 234.006 189.762C231.699 188.36 231.207 184.319 231.207 184.319C231.207 184.319 228.543 189.912 230.919 193.95C233.295 197.989 236.396 195.392 236.855 194.342C236.874 194.298 236.894 194.256 236.912 194.217C236.924 194.193 236.936 194.17 236.947 194.148L243.85 175.82C243.846 175.811 243.842 175.803 243.839 175.796ZM235.292 188.623C235.448 188.38 236.062 188.875 236.279 189.131C236.496 189.387 236.882 190.081 236.725 190.324C236.569 190.567 235.941 190.173 235.724 189.917C235.508 189.661 235.135 188.866 235.292 188.623ZM234.625 193.644C234.31 193.6 233.939 193.148 233.995 192.662C234.051 192.176 234.539 191.97 234.854 192.014C235.169 192.059 235.826 192.424 235.77 192.91C235.714 193.396 234.94 193.688 234.625 193.644ZM238.18 188.661C238.025 188.722 237.816 188.296 237.78 188.09C237.744 187.884 237.789 187.356 237.945 187.294C238.1 187.233 238.271 187.703 238.307 187.91C238.343 188.115 238.336 188.599 238.18 188.661ZM240.198 184.041C240.127 184.178 239.918 184.426 239.82 184.335C239.723 184.245 239.808 183.855 239.879 183.718C239.95 183.582 240.196 183.341 240.293 183.431C240.391 183.522 240.269 183.905 240.198 184.041ZM241.079 181.898C240.815 182.061 240.816 179.893 241.191 180.02C241.833 180.237 241.079 181.898 241.079 181.898Z" fill="#147C4F"/>
<path d="M241.443 195.524C241.319 195.448 241.251 195.267 241.277 195.078C241.312 194.826 241.5 194.661 241.677 194.724C245.991 196.236 246.66 191.508 246.66 191.508C245.196 192.64 242.068 192.001 241.288 191.818C241.189 191.795 241.127 191.665 241.15 191.528C241.173 191.389 241.274 191.297 241.374 191.323C243.784 191.967 246.883 190.351 246.883 190.351C247.647 188.318 247.315 184.764 247.315 184.764C244.689 187.976 242.13 187.961 241.551 187.91C241.478 187.904 241.419 187.835 241.404 187.738C241.379 187.58 241.479 187.429 241.598 187.445C244.342 187.804 247.129 183.642 247.129 183.642C247.298 182.488 246.036 179.86 246.036 179.86C244.911 182.914 242.907 184.174 242.297 184.497C242.202 184.549 242.1 184.476 242.08 184.343C242.062 184.228 242.113 184.109 242.197 184.068C244.301 183.055 245.645 179.209 245.645 179.209C245.635 178.485 245.137 178.215 244.64 177.377C244.197 176.629 243.575 175.235 243.447 174.943C243.443 174.934 243.439 174.926 243.436 174.919C243.427 174.922 243.418 174.925 243.409 174.927L236.475 193.471L236.472 193.48C236.414 193.715 235.303 198.463 239.742 199.425C243.274 200.191 245.288 195.158 245.288 195.158C243.473 196.509 241.976 195.848 241.443 195.524ZM239.698 186.282C240.024 185.937 240.469 185.622 240.464 186.479C240.462 186.748 240.148 186.892 239.855 186.919C239.598 186.942 239.49 186.502 239.698 186.282ZM238.745 189.375C238.766 189.156 239.121 189.071 239.278 189.088C239.435 189.105 239.599 189.247 239.577 189.466C239.556 189.684 239.383 189.842 239.226 189.825C239.069 189.809 238.723 189.593 238.745 189.375ZM238.901 194.941C238.676 195.249 238.226 195.135 238.025 194.861C237.823 194.586 237.541 193.7 237.767 193.392C237.993 193.084 238.558 193.513 238.759 193.788C238.961 194.063 239.127 194.633 238.901 194.941ZM239.492 192.394C239.259 192.437 238.705 192.248 238.684 191.892C238.663 191.536 239.159 191.244 239.392 191.201C239.624 191.157 240.204 191.243 240.225 191.599C240.246 191.955 239.724 192.35 239.492 192.394ZM241.181 189.395C241.095 189.386 240.791 189.202 240.808 189.032C240.824 188.864 241.139 188.816 241.225 188.825C241.312 188.834 241.514 188.947 241.498 189.117C241.481 189.286 241.267 189.404 241.181 189.395Z" fill="#147C4F"/>
</g>
<path d="M160.808 196.403C160.808 196.403 221.588 179.585 260.661 203.13C299.734 226.676 350.607 214.775 350.607 214.775L350.126 248.09L160.808 248.387C160.808 248.387 131.865 221.783 160.808 196.403Z" fill="#93C133"/>
<path d="M-4.66992 247.676L209.108 247.713C182.824 250.165 151.776 197.54 184.922 167.751C229.457 127.728 194.355 95.5731 168.641 85.3187C146.576 76.5193 131.277 43.9088 170.313 19.6288L-4.66992 19.5919V247.676Z" fill="white"/>
</g>
</g>
<mask id="mask6_36_1539" style="mask-type:luminance" maskUnits="userSpaceOnUse" x="245" y="170" width="113" height="97">
<path d="M245.34 170.376H357.836V266.661H245.34V170.376Z" fill="white"/>
</mask>
<g mask="url(#mask6_36_1539)">
<path d="M317.418 215.194C324.439 226.13 325.48 237.241 325.63 240.833L325.814 240.005C326.407 237.221 327.104 234.495 327.872 231.818C322.223 220.272 322.534 207.43 322.534 207.43C327.631 217.374 328.241 226.661 328.242 230.54C328.802 228.652 329.396 226.789 330.013 224.949C330.158 224.513 330.309 224.081 330.459 223.649C326.352 212.742 327.438 201.7 327.438 201.7C331.172 211.178 331.076 219.318 330.827 222.612C330.973 222.203 331.12 221.794 331.27 221.389C331.265 221.388 331.26 221.387 331.255 221.386C331.255 221.386 331.267 221.37 331.285 221.349C331.954 219.553 332.662 217.793 333.401 216.069C329.536 205.93 330.55 195.614 330.55 195.614C334.241 204.984 333.887 212.944 333.637 215.527C334.285 214.035 334.954 212.565 335.645 211.124C336.012 210.365 336.387 209.617 336.765 208.873C335.39 201.396 337.063 195.113 337.063 195.113C338.348 201.735 337.475 206.557 337.029 208.358C338.372 205.758 339.795 203.269 341.328 200.952C342.134 198.567 344.264 193.648 348.934 190.114C348.934 190.114 346.647 197.905 341.044 202.258C340.098 203.764 339.192 205.343 338.321 206.972C339.226 206.048 342.325 203.399 347.163 204.613C347.163 204.613 343.289 208.505 338.148 207.301C337.41 208.695 336.696 210.12 336.006 211.572C335.59 212.454 335.183 213.348 334.782 214.248C335.967 213.042 340.005 209.601 346.291 211.178C346.291 211.178 341.264 216.234 334.587 214.686C333.773 216.538 332.994 218.43 332.258 220.364C334.219 218.592 338.994 215.301 346.032 217.066C346.032 217.066 339.956 223.177 331.828 221.51C331.362 222.774 330.914 224.052 330.488 225.351C329.988 226.872 329.506 228.411 329.043 229.963C330.432 228.163 335.993 221.88 345.485 222.659C345.485 222.659 338.677 231.102 328.897 230.451C327.952 233.665 327.101 236.948 326.404 240.311L326.355 240.539C328.04 237.971 333.573 230.816 343.448 229.887C343.448 229.887 336.735 240.162 326.166 241.409L325.985 242.237C325.917 242.559 325.841 242.877 325.78 243.202L325.609 244.182L324.922 248.103C324.669 249.401 324.529 250.739 324.346 252.061L323.823 256.036L323.125 255.874L323.675 251.859C323.866 250.524 324.015 249.174 324.277 247.863L324.99 243.908L325.169 242.919C325.232 242.591 325.311 242.271 325.38 241.946L325.438 241.689C318.034 229.849 317.418 215.194 317.418 215.194Z" fill="#250B4F"/>
<path d="M278.233 224.725C274.637 231.898 275.292 239.472 275.637 241.929L275.403 241.352C274.634 239.415 273.799 237.512 272.921 235.64C275.47 227.984 273.639 219.159 273.639 219.159C271.28 225.742 272.012 232.085 272.498 234.746C271.865 233.424 271.212 232.118 270.545 230.827C270.387 230.521 270.226 230.218 270.065 229.915C271.603 222.625 269.451 214.998 269.451 214.998C267.997 221.325 269.087 226.915 269.676 229.186C269.521 228.899 269.366 228.612 269.208 228.326C269.212 228.325 269.215 228.325 269.218 228.325C269.218 228.325 269.208 228.314 269.192 228.298C268.494 227.034 267.773 225.794 267.034 224.577C268.498 217.802 266.486 210.677 266.486 210.677C265.049 216.933 266.298 222.41 266.799 224.194C266.154 223.14 265.495 222.101 264.826 221.079C264.472 220.542 264.112 220.011 263.751 219.482C263.786 214.418 261.815 210.029 261.815 210.029C261.737 214.512 262.958 217.861 263.499 219.116C262.224 217.27 260.905 215.497 259.53 213.835C258.66 212.161 256.536 208.687 252.789 206.043C252.789 206.043 255.385 211.495 259.895 214.745C260.752 215.821 261.591 216.947 262.412 218.106C261.656 217.43 259.131 215.467 255.859 216.073C255.859 216.073 259.09 218.925 262.576 218.339C263.273 219.33 263.957 220.342 264.627 221.369C265.032 221.994 265.431 222.626 265.828 223.264C264.838 222.38 261.55 219.831 257.3 220.617C257.3 220.617 261.491 224.321 266.021 223.573C266.829 224.881 267.617 226.216 268.381 227.576C266.771 226.269 262.98 223.789 258.222 224.67C258.222 224.67 263.287 229.146 268.829 228.384C269.317 229.272 269.794 230.17 270.258 231.08C270.803 232.148 271.337 233.226 271.859 234.313C270.65 233.012 265.928 228.443 259.311 228.533C259.311 228.533 265.185 234.642 272.023 234.655C273.095 236.904 274.109 239.195 275.024 241.535L275.087 241.693C273.573 239.853 268.761 234.686 261.658 233.586C261.658 233.586 267.695 240.949 275.33 242.299L275.561 242.876C275.65 243.1 275.744 243.321 275.828 243.547L276.072 244.228L277.049 246.95C277.391 247.853 277.658 248.777 277.953 249.693L278.822 252.444L279.295 252.365L278.403 249.585C278.1 248.66 277.825 247.727 277.476 246.816L276.474 244.069L276.225 243.382C276.139 243.154 276.043 242.931 275.953 242.704L275.88 242.525C279.634 234.749 278.233 224.725 278.233 224.725Z" fill="#250B4F"/>
<path d="M286.718 193.759C291.791 201.047 292.786 208.71 292.981 211.195L293.086 210.613C293.419 208.657 293.826 206.737 294.281 204.847C290.128 197.078 290.012 188.156 290.012 188.156C293.747 194.839 294.402 201.254 294.502 203.945C294.836 202.612 295.193 201.294 295.568 199.992C295.656 199.683 295.748 199.377 295.839 199.071C292.756 191.68 293.214 183.974 293.214 183.974C296.007 190.391 296.149 196.041 296.063 198.337C296.153 198.047 296.243 197.757 296.336 197.469C296.332 197.469 296.328 197.468 296.324 197.467C296.324 197.467 296.333 197.456 296.345 197.441C296.756 196.167 297.194 194.917 297.654 193.689C294.755 186.82 295.184 179.621 295.184 179.621C297.945 185.965 297.907 191.5 297.801 193.304C298.206 192.24 298.625 191.193 299.061 190.164C299.292 189.622 299.528 189.087 299.768 188.554C298.637 183.427 299.618 178.998 299.618 178.998C300.665 183.536 300.193 186.918 299.935 188.186C300.785 186.326 301.692 184.54 302.68 182.867C303.17 181.178 304.499 177.676 307.597 175.027C307.597 175.027 306.234 180.528 302.519 183.785C301.912 184.87 301.334 186.004 300.781 187.17C301.376 186.492 303.424 184.522 306.76 185.159C306.76 185.159 304.213 188.023 300.671 187.405C300.203 188.404 299.751 189.422 299.318 190.458C299.056 191.088 298.802 191.726 298.552 192.368C299.329 191.48 301.999 188.923 306.332 189.75C306.332 189.75 303.028 193.47 298.429 192.679C297.92 193.998 297.436 195.344 296.983 196.716C298.277 195.404 301.454 192.92 306.305 193.846C306.305 193.846 302.313 198.341 296.719 197.53C296.434 198.426 296.16 199.332 295.903 200.25C295.6 201.327 295.31 202.414 295.034 203.511C295.936 202.203 299.573 197.61 306.075 197.748C306.075 197.748 301.642 203.893 294.947 203.856C294.383 206.126 293.886 208.438 293.497 210.801L293.469 210.96C294.554 209.108 298.149 203.91 304.869 202.848C304.869 202.848 300.547 210.259 293.362 211.572L293.26 212.154C293.222 212.381 293.178 212.605 293.144 212.832L293.053 213.52L292.684 216.269C292.544 217.179 292.483 218.113 292.393 219.038L292.136 221.817L291.656 221.735L291.928 218.926C292.024 217.992 292.092 217.05 292.238 216.13L292.623 213.355L292.719 212.662C292.754 212.432 292.8 212.207 292.84 211.978L292.872 211.797C287.514 203.898 286.718 193.759 286.718 193.759Z" fill="#250B4F"/>
<path d="M348.358 250.149C351.251 248.556 354.041 245.533 353.991 241.618C353.942 237.702 351.336 234.018 347.999 233.145C344.662 232.271 340.915 234.292 339.381 237.792C341.181 233.142 339.976 227.066 336.369 224.093C332.761 221.12 326.976 222.126 324.682 226.483C321.8 217.151 312.428 211.117 303.958 213.141C295.487 215.164 289.093 224.984 289.716 234.856C290.645 232.709 288.919 230.222 287.023 229.206C282.63 226.852 276.784 229.104 274.531 234.018C272.278 238.932 274.123 245.575 278.313 248.37C281.156 250.266 284.615 250.355 287.906 250.394C296.993 250.502 306.08 250.609 315.166 250.717C326.502 250.851 337.87 250.982 349.138 249.565" fill="#255B51"/>
<path d="M303.564 253.198C305.723 252.009 307.806 249.753 307.769 246.83C307.732 243.908 305.787 241.158 303.296 240.506C300.806 239.854 298.008 241.362 296.864 243.975C298.207 240.504 297.307 235.968 294.615 233.749C291.922 231.53 287.604 232.281 285.892 235.533C283.74 228.567 276.745 224.064 270.423 225.575C264.1 227.085 259.327 234.415 259.792 241.783C260.485 240.181 259.197 238.325 257.782 237.566C254.503 235.809 250.139 237.49 248.458 241.158C246.776 244.825 248.153 249.784 251.281 251.87C253.403 253.286 255.985 253.352 258.441 253.381C265.223 253.462 272.006 253.542 278.789 253.622C287.25 253.723 295.736 253.82 304.146 252.763" fill="#255B51"/>
<path d="M293.879 223.83C295.263 231.644 299.746 237.738 301.29 239.65L300.823 239.276C299.269 238.008 297.688 236.803 296.093 235.643C293.741 227.928 287.795 221.345 287.795 221.345C289.704 228.061 293.582 233.074 295.33 235.091C294.197 234.279 293.057 233.491 291.915 232.722C291.645 232.54 291.374 232.361 291.104 232.181C288.261 225.265 282.735 219.853 282.735 219.853C285.122 225.914 288.84 230.118 290.451 231.754C290.193 231.586 289.934 231.417 289.675 231.252C289.677 231.25 289.68 231.248 289.682 231.246C289.682 231.246 289.669 231.243 289.65 231.237C288.503 230.506 287.351 229.804 286.2 229.132C283.582 222.689 278.419 217.634 278.419 217.634C280.78 223.625 284.546 227.655 285.838 228.923C284.837 228.343 283.837 227.782 282.838 227.242C282.311 226.959 281.784 226.683 281.257 226.412C278.581 222.108 274.904 219.349 274.904 219.349C277.24 223.181 279.855 225.424 280.892 226.224C279.042 225.28 277.201 224.418 275.382 223.678C273.899 222.683 270.607 220.771 266.655 220.351C266.655 220.351 271.322 223.707 276.114 224.27C277.271 224.766 278.44 225.313 279.615 225.896C278.741 225.689 275.982 225.253 274.086 227.351C274.086 227.351 277.797 228.2 279.851 226.014C280.852 226.514 281.855 227.039 282.857 227.585C283.465 227.917 284.074 228.259 284.682 228.605C283.54 228.337 279.95 227.774 277.485 230.5C277.485 230.5 282.304 231.604 284.979 228.774C286.225 229.489 287.471 230.237 288.714 231.018C286.926 230.692 283.029 230.43 280.271 233.483C280.271 233.483 286.094 234.816 289.449 231.484C290.253 232 291.057 232.529 291.857 233.074C292.795 233.714 293.733 234.368 294.666 235.035C293.153 234.52 287.511 232.94 283.069 236.224C283.069 236.224 290.313 238.548 294.959 235.244C296.886 236.627 298.795 238.077 300.664 239.614L300.791 239.717C298.783 238.893 292.762 236.851 287.356 239.364C287.356 239.364 295.378 242.669 301.279 240.112L301.744 240.488C301.923 240.635 302.105 240.776 302.283 240.927L302.81 241.384L304.925 243.216C305.638 243.813 306.312 244.466 307 245.098L309.056 247.005L309.335 246.71L307.248 244.789C306.55 244.152 305.866 243.497 305.142 242.894L302.999 241.055L302.463 240.595C302.283 240.443 302.099 240.3 301.917 240.153L301.772 240.037C300.174 231.635 293.879 223.83 293.879 223.83Z" fill="#250B4F"/>
<path d="M312.213 178.062C313.48 178.641 315.304 181.055 316.148 184.445C316.985 187.831 316.512 190.612 315.56 191.445C314.358 190.703 312.805 188.199 312.016 185.01C311.224 181.822 311.478 179.119 312.213 178.062Z" fill="#250B4F"/>
<path d="M317.451 213.165C317.369 205.949 316.59 198.605 315.166 191.304L314.459 191.349C315.871 198.59 316.643 205.874 316.724 213.031L317.451 213.165Z" fill="#250B4F"/>
<path d="M322.938 191.053C321.616 190.752 319.591 191.918 318.042 194.389C317.289 195.625 316.752 196.922 316.521 198.102C316.257 199.281 316.253 200.345 316.507 201.117C317.786 201.564 320.005 200.763 321.654 198.292C323.262 195.825 323.525 192.684 322.938 191.053Z" fill="#250B4F"/>
<path d="M307.61 193.644C308.75 193.286 311.097 193.869 313.312 195.901C314.438 196.916 315.246 198.073 315.806 199.15C316.335 200.227 316.571 201.221 316.499 201.911C315.35 202.214 313.002 201.219 310.88 199.19C308.718 197.161 307.621 194.913 307.61 193.644Z" fill="#250B4F"/>
<path d="M308.574 203.382C309.764 203.168 312.072 204.032 314.133 206.308C316.185 208.58 317.085 211.292 316.777 212.628L316.776 212.629C315.574 212.785 313.332 211.517 311.346 209.252C309.38 206.988 308.447 204.634 308.574 203.382Z" fill="#250B4F"/>
<path d="M324.146 202.831C322.845 202.378 320.688 203.258 318.916 205.46C317.138 207.665 316.409 210.227 316.747 211.777L316.748 211.778C317.985 212.366 320.331 211.871 322.184 209.676C324.056 207.488 324.57 204.478 324.146 202.831Z" fill="#250B4F"/>
<path d="M315.047 234.495C316.3 227.462 316.88 220.167 316.708 212.758L315.945 212.647C316.116 219.995 315.54 227.23 314.298 234.203L315.047 234.495Z" fill="#250B4F"/>
<path d="M324.358 214.634C323.08 214.038 320.86 214.634 318.853 216.541C316.873 218.459 315.885 220.839 316.09 222.379C317.28 223.096 319.688 222.908 321.753 221.012C322.808 220.072 323.512 218.885 323.941 217.732C324.386 216.582 324.492 215.456 324.358 214.634Z" fill="#250B4F"/>
<path d="M308.716 213.124C309.934 213.06 312.222 214.204 314.072 216.705C315.948 219.209 316.582 221.996 316.148 223.279C314.915 223.281 312.764 221.749 310.966 219.263C310.09 218.025 309.447 216.791 309.081 215.72C308.729 214.653 308.59 213.732 308.716 213.124Z" fill="#250B4F"/>
<path d="M308.033 222.857C309.279 222.949 311.482 224.367 313.129 227.077C313.932 228.424 314.49 229.828 314.7 231.02C314.919 232.216 314.877 233.228 314.607 233.84L314.607 233.841C313.365 233.691 311.285 231.882 309.73 229.208C308.151 226.524 307.68 224.034 308.033 222.857Z" fill="#250B4F"/>
<path d="M323.567 226.442C322.34 225.713 320.037 226.019 317.846 227.619C316.732 228.412 315.932 229.377 315.342 230.302C314.762 231.23 314.478 232.154 314.521 232.912L314.521 232.913C315.663 233.754 318.059 233.843 320.348 232.278C322.611 230.708 323.706 228.065 323.567 226.442Z" fill="#250B4F"/>
<path d="M308.902 254.596C311.507 248.167 313.478 241.346 314.766 234.273L314.002 233.995C312.724 241.01 310.77 247.773 308.184 254.155L308.902 254.596Z" fill="#250B4F"/>
<path d="M321.786 237.993C320.634 237.154 318.235 237.153 315.912 238.454C313.539 239.734 312.151 241.709 312.047 243.16C313.102 244.094 315.561 244.487 317.991 243.237C319.187 242.604 320.155 241.701 320.798 240.743C321.422 239.776 321.761 238.777 321.786 237.993Z" fill="#250B4F"/>
<path d="M306.538 232.397C307.811 232.654 309.866 234.314 311.317 237.218C312.716 240.097 312.871 242.967 312.158 244.082C310.892 243.768 309 241.747 307.653 238.893C306.961 237.458 306.587 236.122 306.417 234.995C306.228 233.86 306.286 232.948 306.538 232.397Z" fill="#250B4F"/>
<path d="M304.217 241.744C305.469 242.146 307.474 244.087 308.623 247.108C309.828 250.159 309.647 252.967 308.873 254.017L308.873 254.018C307.63 253.564 305.837 251.3 304.746 248.319C304.221 246.839 303.9 245.433 303.841 244.298C303.781 243.165 303.935 242.273 304.217 241.744Z" fill="#250B4F"/>
<path d="M319.011 249.243C317.908 248.291 315.561 248.053 313.043 249.011C310.582 250.005 308.924 251.712 308.74 253.135L308.74 253.136C309.735 254.167 312.127 254.783 314.707 253.864C316.013 253.418 317.01 252.618 317.753 251.773C318.497 250.928 318.939 250.011 319.011 249.243Z" fill="#250B4F"/>
<path d="M290.875 206.482C290.875 206.482 293.767 207.18 295.742 208.062C296.614 208.452 297.108 209.663 296.806 210.672L295.714 214.334C295.644 214.564 295.732 214.842 295.917 214.979C296.127 215.133 296.378 215.047 296.465 214.79L298.208 209.636C298.208 209.636 300.457 211.951 301.943 213.674C302.557 214.388 302.802 215.449 302.562 216.359L300.68 223.512C300.624 223.723 300.707 223.973 300.874 224.096C301.076 224.244 301.317 224.152 301.39 223.9L303.67 216.014C303.67 216.014 305.417 218.564 306.491 220.155C306.978 220.875 307.064 221.86 306.702 222.58L303.153 229.655C303.067 229.827 303.086 230.061 303.2 230.235C303.375 230.499 303.685 230.51 303.826 230.259L308.082 222.634C308.082 222.634 309.289 223.4 311.377 228.315C311.972 229.717 311.687 231.342 310.712 232.115L307.105 234.969C306.915 235.119 306.863 235.439 306.986 235.708C307.127 236.02 307.439 236.139 307.659 235.967L312.798 231.931C312.798 231.931 314.025 235.74 312.813 238.006C311.6 240.272 311.089 243.486 308.745 242.985C306.401 242.483 304.09 241.372 304.09 241.372L291.089 210.261L290.875 206.482Z" fill="#79B638"/>
<path d="M304.374 242.882L290.813 206.676C290.813 206.676 289.383 209.749 288.628 212.295C288.265 213.52 288.642 215 289.537 215.88C290.721 217.046 292.368 218.645 293.161 219.313C293.361 219.481 293.463 219.786 293.413 220.06C293.342 220.449 292.998 220.617 292.703 220.408C291.314 219.424 287.866 216.925 287.66 216.213C287.66 216.213 287.697 220.327 287.834 222.782C287.892 223.809 288.395 224.775 289.14 225.279C290.791 226.398 293.869 228.4 295.605 229.005C295.789 229.07 295.924 229.291 295.924 229.527C295.925 229.835 295.699 230.032 295.461 229.931C294.07 229.344 289.937 227.547 288.471 226.326C288.471 226.326 288.91 229.7 289.231 231.942C289.357 232.812 289.841 233.58 290.494 233.94C291.93 234.733 294.655 235.894 297.631 235.384C297.898 235.339 298.172 235.552 298.279 235.887C298.417 236.316 298.224 236.755 297.88 236.796C296.185 237.001 291.665 237.284 289.539 234.882C289.539 234.882 291.732 245.998 296.064 247.475C300.396 248.951 301.533 250.865 304.374 242.882Z" fill="#79B638"/>
<path d="M334.151 208.919C334.132 208.925 334.113 208.93 334.094 208.936C333.84 209.01 333.55 209.08 333.208 209.142C332.397 209.291 331.296 209.402 329.706 209.442C326.164 209.53 325.848 220.292 325.81 222.599C325.806 222.838 325.683 223.049 325.512 223.111C325.321 223.181 325.129 223.041 325.075 222.787C323.93 217.467 327.549 208.871 327.549 208.871C327.122 208.704 325.212 209.142 323.667 209.544C322.111 209.949 320.87 211.679 320.62 213.811C319.99 219.175 321.121 226.419 321.418 228.028C321.456 228.232 321.483 228.529 321.371 228.688C321.244 228.869 321.125 228.914 321.019 228.845C320.951 228.802 320.888 228.712 320.831 228.58C317.945 221.897 320.336 210.318 320.336 210.318C319.406 210.451 316.836 212.841 315.377 214.228C314.649 214.921 314.23 216.074 314.276 217.248C314.453 221.746 316.789 229.362 317.549 231.447C317.67 231.78 317.839 232.005 317.613 232.242C317.433 232.432 317.2 232.462 317.013 232.342C316.959 232.307 316.905 232.267 316.866 232.202C312.975 225.794 313.425 216 313.425 216C312.507 216.635 310.292 220.824 309.189 223.046C308.659 224.114 308.464 225.409 308.647 226.625C309.419 231.738 312.819 235.763 314.162 237.211C314.404 237.472 314.388 237.899 314.127 238.163C313.938 238.354 313.693 238.393 313.487 238.268C308.639 235.322 307.605 226.83 307.605 226.83C307.605 226.83 302.005 238.584 306.999 247.07C311.992 255.558 318.509 250.099 319.474 247.894C319.514 247.8 319.555 247.713 319.594 247.631C319.619 247.581 319.643 247.532 319.667 247.486L334.174 208.97C334.165 208.951 334.157 208.934 334.151 208.919ZM316.189 235.875C316.518 235.364 317.808 236.405 318.264 236.943C318.719 237.481 319.53 238.939 319.201 239.45C318.872 239.961 317.553 239.132 317.098 238.594C316.643 238.056 315.86 236.387 316.189 235.875ZM314.788 246.426C314.125 246.333 313.346 245.384 313.463 244.363C313.581 243.341 314.607 242.909 315.269 243.002C315.932 243.095 317.312 243.864 317.194 244.885C317.077 245.906 315.45 246.519 314.788 246.426ZM322.259 235.955C321.933 236.084 321.494 235.188 321.418 234.755C321.343 234.322 321.437 233.212 321.764 233.083C322.09 232.954 322.45 233.942 322.526 234.376C322.601 234.808 322.585 235.826 322.259 235.955ZM326.5 226.246C326.351 226.533 325.911 227.055 325.706 226.864C325.501 226.674 325.679 225.856 325.829 225.568C325.979 225.282 326.494 224.774 326.699 224.964C326.904 225.155 326.649 225.959 326.5 226.246ZM328.35 221.742C327.795 222.084 327.797 217.528 328.587 217.795C329.935 218.251 328.35 221.742 328.35 221.742Z" fill="#157C4F"/>
<path d="M329.117 250.378C328.856 250.218 328.713 249.837 328.767 249.44C328.841 248.911 329.234 248.565 329.608 248.696C338.673 251.874 340.078 241.938 340.078 241.938C337.003 244.317 330.429 242.973 328.79 242.589C328.581 242.54 328.451 242.268 328.499 241.98C328.548 241.688 328.761 241.495 328.971 241.55C334.035 242.903 340.547 239.507 340.547 239.507C342.153 235.233 341.457 227.764 341.457 227.764C335.937 234.515 330.56 234.483 329.342 234.377C329.189 234.363 329.065 234.218 329.034 234.016C328.981 233.684 329.192 233.365 329.441 233.399C335.209 234.153 341.065 225.407 341.065 225.407C341.42 222.983 338.767 217.46 338.767 217.46C336.403 223.879 332.193 226.525 330.911 227.205C330.71 227.313 330.496 227.16 330.454 226.881C330.417 226.639 330.523 226.388 330.699 226.303C335.122 224.174 337.947 216.092 337.947 216.092C337.926 214.571 336.878 214.003 335.835 212.242C334.903 210.67 333.597 207.74 333.327 207.128C333.318 207.109 333.31 207.091 333.304 207.077C333.285 207.082 333.265 207.088 333.246 207.093L318.675 246.062L318.67 246.082C318.548 246.576 316.213 256.554 325.541 258.576C332.964 260.186 337.197 249.608 337.197 249.608C333.381 252.448 330.235 251.058 329.117 250.378ZM325.449 230.955C326.133 230.231 327.068 229.568 327.058 231.368C327.055 231.936 326.394 232.236 325.778 232.293C325.239 232.343 325.011 231.419 325.449 230.955ZM323.446 237.455C323.491 236.996 324.236 236.818 324.566 236.852C324.896 236.887 325.24 237.187 325.195 237.646C325.15 238.105 324.787 238.436 324.457 238.401C324.127 238.367 323.401 237.914 323.446 237.455ZM323.775 249.152C323.3 249.8 322.355 249.561 321.932 248.983C321.509 248.405 320.915 246.545 321.39 245.898C321.866 245.25 323.053 246.152 323.476 246.729C323.899 247.307 324.25 248.504 323.775 249.152ZM325.015 243.799C324.527 243.89 323.361 243.492 323.317 242.744C323.273 241.996 324.316 241.382 324.805 241.292C325.293 241.201 326.512 241.38 326.556 242.129C326.6 242.877 325.504 243.708 325.015 243.799ZM328.566 237.498C328.384 237.479 327.745 237.091 327.781 236.736C327.815 236.381 328.477 236.281 328.659 236.3C328.84 236.319 329.265 236.557 329.23 236.912C329.195 237.268 328.747 237.517 328.566 237.498Z" fill="#157C4F"/>
<path d="M274.646 234.669C273.432 232.105 272.006 229.61 271.266 226.871C270.525 224.133 270.602 221 272.183 219.175C273.764 217.352 277.09 217.668 278.352 220.205C278.86 221.23 279.269 222.713 280.229 222.767C281.136 222.818 281.4 221.434 281.192 220.377C280.853 218.651 279.954 217.078 279.18 215.49C278.406 213.902 277.722 212.136 277.892 210.454C278.061 208.771 279.414 207.336 280.876 207.878C281.422 208.079 281.931 208.525 282.485 208.582C283.418 208.678 284.038 207.613 284.112 206.549C284.186 205.485 283.893 204.377 283.848 203.292C283.688 199.478 287.228 196.677 290.409 198.103C293.59 199.528 295.318 204.69 293.613 207.668C293.083 208.591 292.302 209.302 291.924 210.336C291.546 211.37 291.795 212.951 292.768 213.446C293.754 213.946 294.664 213.023 295.662 212.876C297.32 212.632 298.975 214.767 299.116 216.763C299.258 218.759 298.304 220.479 297.164 221.782C296.023 223.084 294.659 224.129 293.682 225.606C293.339 226.124 293.047 226.853 293.374 227.486C293.898 228.5 295.11 228.011 296.032 227.836C298.238 227.419 300.568 230.077 300.982 232.758C301.395 235.439 300.383 237.934 299.07 239.916C296.951 243.114 294.057 245.409 291.158 247.587C288.351 249.696 285.772 252.494 282.906 254.425C278.872 257.142 279.417 250.37 278.791 247.227C277.932 242.913 276.536 238.662 274.646 234.669Z" fill="#B3DC5E"/>
<path d="M293.633 233.463C293.732 233.34 293.534 233.153 293.435 233.275C288.472 239.356 284.324 246.179 281.278 253.922C283.312 244.728 284.888 235.333 285.991 225.791C285.995 225.787 285.998 225.784 286 225.779C287.727 223.074 289.72 220.64 291.954 218.514C292.066 218.408 291.911 218.171 291.799 218.278C289.659 220.314 287.737 222.63 286.059 225.196C286.295 223.119 286.511 221.038 286.701 218.949C287.054 215.08 287.329 211.189 287.529 207.282C287.538 207.105 287.299 207.049 287.29 207.227C287.081 211.308 286.786 215.369 286.41 219.407C285.559 217.478 284.709 215.548 283.858 213.618C283.783 213.449 283.567 213.536 283.641 213.705C284.543 215.749 285.444 217.795 286.345 219.839C286.351 219.854 286.359 219.865 286.367 219.876C285.691 227.016 284.752 234.082 283.555 241.052C282.001 235.732 280.038 230.531 277.689 225.521C277.612 225.355 277.395 225.442 277.473 225.608C279.886 230.754 281.892 236.101 283.465 241.571C283.101 243.661 282.718 245.743 282.307 247.814C281.576 251.513 280.768 255.181 279.89 258.816C279.851 258.981 280.077 259.109 280.117 258.942C280.39 257.81 280.654 256.674 280.914 255.536C280.931 255.525 280.947 255.509 280.957 255.482C284.037 247.164 288.379 239.9 293.633 233.463Z" fill="#044937"/>
</g>
<mask id="mask7_36_1539" style="mask-type:luminance" maskUnits="userSpaceOnUse" x="12" y="-18" width="362" height="298">
<path d="M12.6372 -17.2955H373.203V279.882H12.6372V-17.2955Z" fill="white"/>
</mask>
<g mask="url(#mask7_36_1539)">
<g opacity="0.22">
<path d="M315.993 48.3391L319.358 80.1787L225.13 247.787L142.921 246.598L315.993 48.3391Z" fill="white"/>
</g>
<g opacity="0.22">
<path d="M268.879 62.348L269.84 87.9053L117.526 246.725L67.0999 246.833L268.879 62.348Z" fill="white"/>
</g>
</g>
<mask id="mask8_36_1539" style="mask-type:luminance" maskUnits="userSpaceOnUse" x="229" y="-5" width="146" height="268">
<path d="M229.455 -4.21973H374.162V262.052H229.455V-4.21973Z" fill="white"/>
</mask>
<g mask="url(#mask8_36_1539)">
<g opacity="0.5" filter="url(#filter0_f_36_1539)">
<path d="M257.894 127.852C257.894 127.852 238.003 135.618 254.231 152.444C246.378 175.094 266.269 181.565 274.644 167.328C275.168 185.448 297.153 182.859 300.817 168.622C304.481 154.385 299.77 151.15 299.77 151.15C299.77 151.15 312.333 137.56 303.434 131.088C306.051 119.44 286.161 100.025 276.215 120.734C269.41 111.027 258.941 106.496 257.894 127.852Z" fill="black"/>
</g>
<path d="M257.894 127.852C257.894 127.852 238.003 135.618 254.231 152.444C246.378 175.094 266.269 181.565 274.644 167.328C275.168 185.448 297.153 182.859 300.817 168.622C304.481 154.385 299.77 151.15 299.77 151.15C299.77 151.15 312.333 137.56 303.434 131.088C306.051 119.44 286.161 100.025 276.215 120.734C269.41 111.027 258.941 106.496 257.894 127.852Z" fill="#255B51"/>
<g opacity="0.37">
<path d="M270.116 169.542C270.116 169.542 253.877 176.947 256.577 152.137C260.533 153.183 261.723 168.387 270.116 169.542Z" fill="#FCFCFD"/>
</g>
<path d="M302.659 144.129C304.585 144.707 317.081 165.526 329.581 148.884C338.715 160.771 348.811 153.639 352.176 137.591C365.157 141.752 372.849 106.685 358.907 100.741C369.964 85.8824 350.734 60.9195 342.08 69.8348C321.408 52.5985 299.774 75.184 302.659 85.8824C291.601 84.0993 289.678 105.496 297.851 113.817C285.352 115.6 286.794 139.374 302.659 144.129Z" fill="#112B27"/>
<path d="M288.59 130.848L298.205 147.49L301.09 91.0258H308.301V122.527L321.869 104.67C322.378 103.999 323.286 104.233 323.525 105.105C323.671 105.637 323.876 106.286 324.166 107.073C323.204 107.668 308.301 134.414 308.301 134.414L314.551 256.851H292.917L297.724 154.622L284.744 130.848H288.59Z" fill="#875537"/>
<path d="M288.59 130.848L298.205 147.49L301.09 91.0258H308.301V122.527L321.869 104.67C322.378 103.999 323.286 104.233 323.525 105.105C323.671 105.637 323.876 106.286 324.166 107.073C323.204 107.668 308.301 134.414 308.301 134.414L314.551 256.851H292.917L297.724 154.622L284.744 130.848H288.59Z" fill="#875537"/>
<path d="M321.869 104.67L308.3 122.527V91.0258H304.454V256.851H314.55L308.3 134.414C308.3 134.414 323.204 107.668 324.165 107.073C323.876 106.286 323.67 105.637 323.524 105.105C323.286 104.234 322.378 104 321.869 104.67Z" fill="#704B38"/>
<path d="M308.301 134.414C308.301 134.414 323.204 107.668 324.166 107.073C323.876 106.286 323.671 105.637 323.525 105.105C323.286 104.233 322.378 103.999 321.869 104.67L308.301 122.527V91.0258H301.09L298.205 147.49L288.59 130.848H284.744L296.681 152.712L308.431 136.957L308.301 134.414Z" fill="#5F3813"/>
<g opacity="0.75" filter="url(#filter1_f_36_1539)">
<path d="M324.526 76.075C324.526 76.075 306.257 83.2073 321.161 98.6605C313.949 119.463 332.218 125.406 339.91 112.331C340.391 128.973 360.582 126.595 363.948 113.519C367.313 100.444 362.986 97.4718 362.986 97.4718C362.986 97.4718 374.524 84.9903 366.351 79.0468C368.755 68.3484 350.487 50.5177 341.352 69.5371C335.102 60.6217 325.487 56.4613 324.526 76.075Z" fill="black"/>
</g>
<path d="M322.122 77.8581C322.122 77.8581 303.853 84.9903 318.757 100.444C311.545 121.246 329.814 127.19 337.506 114.114C337.987 130.756 358.179 128.378 361.544 115.302C364.909 102.227 360.582 99.2549 360.582 99.2549C360.582 99.2549 372.12 86.7734 363.948 80.8298C366.351 70.1314 348.083 52.3008 338.948 71.3202C332.699 62.4048 323.084 58.2443 322.122 77.8581Z" fill="#112B27"/>
<g opacity="0.5" filter="url(#filter2_f_36_1539)">
<path d="M262.594 30.0089C262.339 31.1548 250.575 41.896 264.037 65.6702C252.979 82.3122 267.402 97.1711 277.498 91.8219C278.94 106.681 297.689 112.624 304.901 98.3598C309.708 107.275 324.131 104.898 332.304 87.067C348.649 88.8501 352.976 71.6138 354.418 59.1323C355.861 46.6508 357.784 12.1782 334.707 16.3387C329.9 -2.0863 270.286 -4.46373 262.594 30.0089Z" fill="black"/>
</g>
<path d="M262.594 30.0089C262.339 31.1548 250.575 41.896 264.037 65.6702C252.979 82.3122 267.402 97.1711 277.498 91.8219C278.94 106.681 297.689 112.624 304.901 98.3598C309.708 107.275 324.131 104.898 332.304 87.067C348.649 88.8501 352.976 71.6138 354.418 59.1323C355.861 46.6508 357.784 12.1782 334.707 16.3387C329.9 -2.0863 270.286 -4.46373 262.594 30.0089Z" fill="#10644B"/>
<g opacity="0.32" filter="url(#filter3_f_36_1539)">
<path d="M266.312 65.0912C264.813 67.5001 233.028 64.4968 242.757 101.347C229.443 117.394 240.196 129.282 249.925 129.876C254.022 145.924 276.741 157.216 285.864 140.871C297.966 145.032 307.79 130.47 303.181 104.319C318.544 94.2146 305.229 65.0912 291.403 72.8178C290.891 50.8266 272.969 54.3928 266.312 65.0912Z" fill="black"/>
</g>
<path d="M266.312 59.1477C264.813 61.5566 233.028 58.5533 242.757 95.4034C229.443 111.451 240.196 123.338 249.925 123.932C254.022 139.98 276.741 151.273 285.864 134.928C297.966 139.088 307.79 124.527 303.181 98.3751C318.544 88.2711 305.229 59.1477 291.403 66.8743C290.891 44.8831 272.969 48.4493 266.312 59.1477Z" fill="#1D6E55"/>
<g opacity="0.37">
<path d="M248.554 97.4835C248.554 97.4835 237.978 69.5488 261.054 66.577C261.054 74.3036 247.593 81.4359 248.554 97.4835Z" fill="#FCFCFD"/>
</g>
</g>
<mask id="mask9_36_1539" style="mask-type:luminance" maskUnits="userSpaceOnUse" x="119" y="188" width="88" height="71">
<path d="M119.151 188.205H206.167V258.934H119.151V188.205Z" fill="white"/>
</mask>
<g mask="url(#mask9_36_1539)">
<path d="M194.05 245.679C196.34 244.418 198.55 242.025 198.51 238.925C198.471 235.825 196.408 232.908 193.766 232.216C191.124 231.524 188.157 233.125 186.942 235.896C188.368 232.214 187.413 227.403 184.557 225.049C181.701 222.696 177.121 223.492 175.305 226.942C173.022 219.553 165.602 214.775 158.895 216.378C152.189 217.98 147.126 225.755 147.62 233.571C148.355 231.872 146.988 229.903 145.487 229.098C142.009 227.234 137.38 229.017 135.596 232.908C133.813 236.798 135.273 242.058 138.591 244.271C140.842 245.772 143.581 245.843 146.186 245.874C153.381 245.959 160.576 246.044 167.77 246.129C176.745 246.236 185.746 246.339 194.668 245.218" fill="#255B51"/>
<path d="M150.916 224.841C152.012 231.028 155.561 235.853 156.783 237.367L156.414 237.071C155.183 236.067 153.931 235.113 152.669 234.195C150.806 228.086 146.098 222.874 146.098 222.874C147.61 228.192 150.681 232.16 152.064 233.757C151.167 233.115 150.264 232.491 149.361 231.882C149.147 231.737 148.932 231.596 148.718 231.454C146.468 225.978 142.092 221.693 142.092 221.693C143.982 226.491 146.926 229.82 148.202 231.115C147.997 230.982 147.792 230.848 147.587 230.718C147.589 230.716 147.591 230.715 147.592 230.713C147.592 230.713 147.582 230.71 147.567 230.706C146.659 230.127 145.747 229.572 144.836 229.039C142.763 223.938 138.675 219.936 138.675 219.936C140.544 224.679 143.526 227.87 144.549 228.874C143.757 228.415 142.964 227.97 142.174 227.543C141.756 227.319 141.339 227.1 140.922 226.886C138.803 223.478 135.892 221.293 135.892 221.293C137.741 224.327 139.812 226.103 140.633 226.737C139.168 225.989 137.711 225.307 136.271 224.721C135.096 223.933 132.49 222.42 129.36 222.087C129.36 222.087 133.055 224.744 136.85 225.19C137.766 225.583 138.692 226.016 139.622 226.477C138.93 226.313 136.745 225.968 135.244 227.629C135.244 227.629 138.182 228.301 139.809 226.571C140.601 226.967 141.395 227.382 142.189 227.814C142.67 228.077 143.152 228.348 143.634 228.622C142.73 228.41 139.887 227.964 137.935 230.123C137.935 230.123 141.751 230.996 143.868 228.756C144.855 229.322 145.842 229.914 146.826 230.533C145.41 230.275 142.325 230.067 140.141 232.484C140.141 232.484 144.752 233.54 147.408 230.902C148.045 231.31 148.681 231.729 149.314 232.161C150.057 232.667 150.799 233.185 151.538 233.713C150.34 233.305 145.874 232.054 142.356 234.654C142.356 234.654 148.092 236.494 151.771 233.878C153.296 234.974 154.808 236.122 156.288 237.339L156.388 237.42C154.798 236.768 150.031 235.151 145.75 237.14C145.75 237.14 152.103 239.758 156.774 237.733L157.143 238.031C157.284 238.147 157.429 238.259 157.569 238.378L157.987 238.74L159.661 240.19C160.225 240.663 160.759 241.18 161.304 241.68L162.932 243.191L163.153 242.957L161.501 241.436C160.948 240.932 160.406 240.413 159.833 239.936L158.136 238.48L157.712 238.115C157.57 237.995 157.424 237.882 157.28 237.765L157.164 237.673C155.899 231.021 150.916 224.841 150.916 224.841Z" fill="#250B4F"/>
<path d="M165.432 188.603C166.435 189.062 167.879 190.973 168.547 193.658C169.21 196.339 168.835 198.541 168.082 199.2C167.13 198.613 165.901 196.63 165.276 194.105C164.649 191.581 164.85 189.441 165.432 188.603Z" fill="#250B4F"/>
<path d="M169.579 216.397C169.514 210.684 168.897 204.869 167.77 199.088L167.21 199.124C168.328 204.857 168.94 210.624 169.004 216.291L169.579 216.397Z" fill="#250B4F"/>
<path d="M173.924 198.89C172.876 198.652 171.273 199.574 170.047 201.531C169.451 202.51 169.025 203.536 168.843 204.471C168.634 205.404 168.631 206.247 168.832 206.858C169.845 207.212 171.601 206.578 172.907 204.622C174.18 202.668 174.388 200.182 173.924 198.89Z" fill="#250B4F"/>
<path d="M161.788 200.941C162.69 200.658 164.548 201.119 166.302 202.728C167.193 203.531 167.833 204.448 168.277 205.301C168.695 206.154 168.882 206.94 168.826 207.487C167.915 207.726 166.057 206.938 164.376 205.332C162.665 203.725 161.796 201.945 161.788 200.941Z" fill="#250B4F"/>
<path d="M162.551 208.651C163.493 208.482 165.32 209.166 166.952 210.968C168.577 212.767 169.289 214.914 169.045 215.972L169.045 215.973C168.093 216.096 166.318 215.092 164.745 213.299C163.189 211.507 162.45 209.642 162.551 208.651Z" fill="#250B4F"/>
<path d="M174.88 208.215C173.85 207.857 172.142 208.553 170.739 210.297C169.331 212.042 168.754 214.071 169.022 215.298L169.022 215.299C170.002 215.764 171.86 215.373 173.326 213.635C174.808 211.903 175.215 209.519 174.88 208.215Z" fill="#250B4F"/>
<path d="M167.676 233.285C168.668 227.717 169.127 221.941 168.991 216.075L168.387 215.987C168.522 221.805 168.066 227.533 167.083 233.055L167.676 233.285Z" fill="#250B4F"/>
<path d="M175.048 217.56C174.036 217.088 172.278 217.56 170.689 219.071C169.122 220.589 168.339 222.473 168.501 223.693C169.444 224.26 171.35 224.111 172.985 222.61C173.82 221.866 174.377 220.926 174.718 220.013C175.07 219.103 175.154 218.211 175.048 217.56Z" fill="#250B4F"/>
<path d="M162.663 216.365C163.627 216.314 165.439 217.22 166.904 219.2C168.389 221.182 168.891 223.389 168.547 224.405C167.571 224.407 165.868 223.193 164.444 221.225C163.751 220.245 163.242 219.268 162.952 218.42C162.673 217.575 162.563 216.846 162.663 216.365Z" fill="#250B4F"/>
<path d="M162.123 224.071C163.109 224.144 164.853 225.266 166.157 227.412C166.793 228.479 167.235 229.59 167.401 230.534C167.574 231.481 167.541 232.283 167.328 232.767L167.327 232.768C166.344 232.649 164.697 231.216 163.466 229.099C162.216 226.974 161.843 225.003 162.123 224.071Z" fill="#250B4F"/>
<path d="M174.421 226.909C173.45 226.332 171.626 226.575 169.892 227.841C169.009 228.469 168.376 229.233 167.909 229.965C167.45 230.7 167.225 231.431 167.259 232.032L167.259 232.033C168.163 232.699 170.061 232.769 171.873 231.53C173.664 230.287 174.532 228.195 174.421 226.909Z" fill="#250B4F"/>
<path d="M162.811 249.201C164.873 244.111 166.433 238.71 167.453 233.11L166.848 232.889C165.837 238.444 164.29 243.799 162.242 248.852L162.811 249.201Z" fill="#250B4F"/>
<path d="M173.011 236.055C172.099 235.391 170.2 235.39 168.361 236.42C166.482 237.434 165.383 238.997 165.3 240.146C166.136 240.885 168.082 241.197 170.007 240.207C170.953 239.706 171.72 238.991 172.229 238.232C172.723 237.467 172.992 236.675 173.011 236.055Z" fill="#250B4F"/>
<path d="M160.939 231.624C161.946 231.828 163.573 233.142 164.722 235.442C165.83 237.721 165.953 239.994 165.388 240.876C164.385 240.627 162.888 239.027 161.821 236.768C161.273 235.632 160.977 234.574 160.842 233.682C160.692 232.783 160.738 232.061 160.939 231.624Z" fill="#250B4F"/>
<path d="M159.101 239.025C160.092 239.343 161.68 240.88 162.589 243.272C163.544 245.688 163.4 247.911 162.787 248.742L162.787 248.743C161.803 248.383 160.384 246.591 159.52 244.231C159.104 243.059 158.85 241.946 158.803 241.047C158.756 240.15 158.878 239.443 159.101 239.025Z" fill="#250B4F"/>
<path d="M170.814 244.962C169.941 244.208 168.082 244.02 166.089 244.779C164.14 245.566 162.828 246.917 162.682 248.044L162.682 248.045C163.47 248.861 165.364 249.349 167.406 248.621C168.441 248.268 169.23 247.635 169.818 246.966C170.407 246.297 170.757 245.57 170.814 244.962Z" fill="#250B4F"/>
<path d="M183.878 212.04C185.655 217.198 185.084 222.022 184.826 223.569L184.97 223.227C185.446 222.077 185.959 220.959 186.494 219.867C185.305 214.541 186.557 209.07 186.557 209.07C187.671 213.673 187.092 217.687 186.751 219.345C187.136 218.577 187.531 217.821 187.934 217.076C188.03 216.9 188.126 216.726 188.223 216.551C187.58 211.605 188.975 206.956 188.975 206.956C189.599 211.266 188.844 214.741 188.457 216.133C188.55 215.968 188.644 215.803 188.738 215.64L188.732 215.637C188.732 215.637 188.738 215.632 188.747 215.624C189.166 214.902 189.598 214.198 190.038 213.51C189.421 208.909 190.725 204.567 190.725 204.567C191.341 208.828 190.503 212.208 190.178 213.296C190.562 212.702 190.953 212.119 191.349 211.55C191.559 211.251 191.771 210.957 191.984 210.664C192.105 207.372 193.311 204.8 193.311 204.8C193.23 207.72 192.465 209.722 192.133 210.462C192.885 209.442 193.659 208.476 194.461 207.589C194.987 206.625 196.25 204.667 198.384 203.476C198.384 203.476 196.805 206.651 194.236 208.129C193.734 208.708 193.241 209.321 192.758 209.958C193.193 209.625 194.635 208.705 196.416 209.556C196.416 209.556 194.563 210.955 192.662 210.087C192.252 210.632 191.847 211.193 191.45 211.766C191.21 212.115 190.973 212.469 190.737 212.827C191.306 212.392 193.184 211.198 195.499 212.304C195.499 212.304 193.092 214.121 190.622 213.001C190.142 213.737 189.671 214.493 189.213 215.269C190.135 214.646 192.288 213.567 194.88 214.805C194.88 214.805 191.97 217 188.945 215.73C188.652 216.238 188.364 216.755 188.084 217.281C187.755 217.897 187.431 218.522 187.114 219.154C187.815 218.479 190.538 216.174 194.173 217.159C194.173 217.159 190.774 220.303 187.015 219.353C186.363 220.663 185.742 222.008 185.174 223.399L185.135 223.492C186.018 222.51 188.807 219.83 192.743 220.11C192.743 220.11 189.219 224.044 184.984 223.852L184.841 224.194C184.786 224.327 184.728 224.458 184.676 224.592L184.522 225L183.91 226.63C183.697 227.168 183.525 227.73 183.338 228.283L182.783 229.946L182.524 229.83L183.092 228.15C183.284 227.592 183.461 227.025 183.679 226.483L184.305 224.84L184.462 224.429C184.515 224.293 184.575 224.162 184.631 224.027L184.675 223.922C182.828 218.349 183.878 212.04 183.878 212.04Z" fill="#250B4F"/>
<path d="M148.537 211.105C148.537 211.105 150.827 211.658 152.39 212.357C153.08 212.666 153.472 213.625 153.233 214.423L152.368 217.323C152.313 217.505 152.382 217.725 152.529 217.833C152.695 217.955 152.894 217.887 152.963 217.684L154.343 213.603C154.343 213.603 156.124 215.436 157.3 216.8C157.786 217.365 157.98 218.206 157.79 218.926L156.3 224.59C156.256 224.757 156.321 224.954 156.454 225.052C156.613 225.169 156.804 225.097 156.862 224.897L158.668 218.653C158.668 218.653 160.051 220.672 160.901 221.931C161.287 222.502 161.354 223.282 161.068 223.852L158.258 229.453C158.19 229.589 158.205 229.775 158.296 229.913C158.434 230.121 158.68 230.13 158.791 229.931L162.161 223.895C162.161 223.895 163.117 224.5 164.769 228.392C165.241 229.502 165.015 230.789 164.243 231.401L161.387 233.661C161.237 233.78 161.196 234.033 161.293 234.246C161.404 234.493 161.652 234.587 161.826 234.451L165.895 231.255C165.895 231.255 166.866 234.271 165.907 236.065C164.946 237.859 164.541 240.404 162.686 240.007C160.83 239.61 159 238.731 159 238.731L148.706 214.097L148.537 211.105Z" fill="#79B638"/>
<path d="M159.225 239.926L148.488 211.259C148.488 211.259 147.356 213.692 146.758 215.708C146.47 216.678 146.769 217.85 147.478 218.547C148.415 219.47 149.719 220.736 150.347 221.265C150.505 221.398 150.586 221.64 150.546 221.856C150.49 222.165 150.218 222.298 149.984 222.132C148.885 221.353 146.155 219.374 145.992 218.81C145.992 218.81 146.021 222.068 146.13 224.011C146.175 224.825 146.574 225.589 147.163 225.989C148.471 226.874 150.908 228.46 152.282 228.939C152.427 228.99 152.535 229.165 152.535 229.352C152.535 229.596 152.356 229.752 152.168 229.672C151.066 229.207 147.795 227.784 146.634 226.817C146.634 226.817 146.981 229.489 147.236 231.264C147.335 231.953 147.718 232.561 148.236 232.846C149.372 233.474 151.53 234.393 153.887 233.99C154.097 233.954 154.315 234.123 154.4 234.387C154.509 234.728 154.356 235.075 154.083 235.108C152.741 235.27 149.163 235.494 147.479 233.592C147.479 233.592 149.216 242.393 152.645 243.562C156.075 244.732 156.976 246.247 159.225 239.926Z" fill="#79B638"/>
<path d="M182.801 213.035C182.787 213.04 182.772 213.044 182.756 213.048C182.555 213.107 182.326 213.163 182.055 213.212C181.413 213.33 180.541 213.417 179.282 213.449C176.477 213.519 176.228 222.04 176.198 223.867C176.195 224.056 176.097 224.223 175.962 224.272C175.81 224.328 175.658 224.216 175.615 224.016C174.709 219.803 177.574 212.997 177.574 212.997C177.236 212.865 175.724 213.212 174.501 213.53C173.269 213.851 172.286 215.22 172.088 216.908C171.589 221.156 172.485 226.891 172.72 228.165C172.75 228.326 172.771 228.562 172.682 228.688C172.582 228.831 172.488 228.867 172.404 228.812C172.35 228.778 172.3 228.707 172.255 228.602C169.97 223.311 171.863 214.143 171.863 214.143C171.127 214.248 169.092 216.14 167.937 217.239C167.36 217.787 167.029 218.7 167.065 219.63C167.205 223.191 169.055 229.222 169.657 230.872C169.752 231.136 169.887 231.314 169.707 231.502C169.564 231.652 169.38 231.676 169.232 231.581C169.19 231.553 169.147 231.521 169.116 231.47C166.035 226.396 166.391 218.642 166.391 218.642C165.665 219.144 163.911 222.461 163.038 224.221C162.618 225.066 162.463 226.091 162.608 227.054C163.22 231.102 165.911 234.289 166.975 235.436C167.167 235.642 167.154 235.981 166.947 236.189C166.798 236.341 166.603 236.371 166.441 236.273C162.602 233.94 161.783 227.216 161.783 227.216C161.783 227.216 157.35 236.523 161.304 243.242C165.257 249.962 170.417 245.64 171.18 243.894C171.213 243.82 171.245 243.751 171.276 243.686C171.296 243.647 171.315 243.608 171.334 243.571L182.82 213.076C182.812 213.06 182.806 213.047 182.801 213.035ZM168.58 234.378C168.84 233.974 169.862 234.798 170.223 235.224C170.583 235.65 171.225 236.804 170.965 237.208C170.704 237.613 169.66 236.957 169.3 236.531C168.939 236.105 168.319 234.783 168.58 234.378ZM167.47 242.732C166.946 242.659 166.329 241.907 166.422 241.098C166.515 240.29 167.327 239.948 167.852 240.021C168.376 240.095 169.469 240.703 169.376 241.512C169.283 242.32 167.995 242.805 167.47 242.732ZM173.386 234.441C173.128 234.543 172.78 233.834 172.72 233.491C172.66 233.149 172.735 232.269 172.994 232.167C173.252 232.065 173.537 232.848 173.597 233.191C173.657 233.533 173.644 234.339 173.386 234.441ZM176.743 226.754C176.625 226.982 176.277 227.395 176.115 227.244C175.953 227.093 176.094 226.445 176.213 226.217C176.331 225.991 176.739 225.589 176.901 225.739C177.064 225.89 176.862 226.527 176.743 226.754ZM178.209 223.188C177.769 223.459 177.771 219.852 178.396 220.063C179.463 220.424 178.209 223.188 178.209 223.188Z" fill="#147C4F"/>
<path d="M178.815 245.861C178.609 245.735 178.495 245.432 178.539 245.119C178.597 244.7 178.909 244.426 179.204 244.529C186.382 247.045 187.494 239.178 187.494 239.178C185.06 241.062 179.854 239.998 178.557 239.694C178.391 239.655 178.289 239.439 178.326 239.212C178.365 238.981 178.534 238.828 178.7 238.871C182.71 239.942 187.866 237.254 187.866 237.254C189.137 233.87 188.586 227.956 188.586 227.956C184.216 233.302 179.958 233.276 178.993 233.192C178.872 233.181 178.775 233.066 178.75 232.906C178.708 232.643 178.875 232.391 179.072 232.417C183.639 233.015 188.275 226.09 188.275 226.09C188.556 224.17 186.456 219.798 186.456 219.798C184.584 224.88 181.251 226.975 180.236 227.514C180.077 227.599 179.907 227.478 179.874 227.257C179.845 227.065 179.929 226.867 180.069 226.8C183.57 225.113 185.807 218.715 185.807 218.715C185.79 217.51 184.961 217.06 184.135 215.666C183.397 214.422 182.363 212.102 182.149 211.617C182.142 211.602 182.136 211.588 182.13 211.577C182.115 211.581 182.1 211.586 182.085 211.589L170.548 242.444L170.544 242.459C170.447 242.851 168.599 250.751 175.984 252.352C181.862 253.627 185.213 245.252 185.213 245.252C182.192 247.5 179.701 246.4 178.815 245.861ZM175.912 230.482C176.453 229.909 177.193 229.385 177.185 230.81C177.183 231.259 176.66 231.497 176.172 231.542C175.745 231.582 175.565 230.85 175.912 230.482ZM174.325 235.629C174.361 235.265 174.951 235.124 175.212 235.152C175.474 235.179 175.746 235.417 175.71 235.78C175.675 236.144 175.388 236.406 175.126 236.378C174.865 236.351 174.29 235.993 174.325 235.629ZM174.586 244.89C174.21 245.403 173.462 245.214 173.127 244.757C172.792 244.299 172.322 242.826 172.698 242.314C173.074 241.801 174.014 242.515 174.349 242.972C174.684 243.43 174.962 244.377 174.586 244.89ZM175.568 240.652C175.181 240.724 174.258 240.409 174.224 239.817C174.189 239.224 175.015 238.739 175.401 238.667C175.788 238.595 176.753 238.737 176.788 239.33C176.823 239.922 175.955 240.58 175.568 240.652ZM178.379 235.663C178.235 235.648 177.73 235.341 177.758 235.059C177.785 234.779 178.309 234.699 178.453 234.715C178.596 234.73 178.933 234.918 178.906 235.199C178.878 235.481 178.523 235.678 178.379 235.663Z" fill="#147C4F"/>
</g>
<mask id="mask10_36_1539" style="mask-type:luminance" maskUnits="userSpaceOnUse" x="87" y="152" width="280" height="124">
<path d="M87.0732 152.624H366.872V275.656H87.0732V152.624Z" fill="white"/>
</mask>
<g mask="url(#mask10_36_1539)">
<path d="M182.522 187.162C182.532 187.728 182.168 188.197 181.71 188.21C181.252 188.222 180.873 187.774 180.863 187.207C180.853 186.641 181.216 186.172 181.674 186.159C182.132 186.147 182.512 186.596 182.522 187.162Z" fill="#29530D"/>
<path d="M170.86 194.496C170.872 195.175 170.436 195.738 169.887 195.753C169.337 195.768 168.882 195.229 168.87 194.55C168.858 193.871 169.294 193.308 169.843 193.294C170.393 193.278 170.848 193.816 170.86 194.496Z" fill="#2E5B06"/>
<path d="M311.154 189.487C311.154 190.861 310.252 191.976 309.14 191.976C308.027 191.976 307.125 190.861 307.125 189.487C307.125 188.111 308.027 186.997 309.14 186.997C310.252 186.997 311.154 188.111 311.154 189.487Z" fill="#C6DC5E"/>
<path d="M245.036 223.8C245.036 225.175 244.133 226.29 243.021 226.29C241.908 226.29 241.007 225.175 241.007 223.8C241.007 222.425 241.908 221.31 243.021 221.31C244.133 221.31 245.036 222.425 245.036 223.8Z" fill="#C6DC5E"/>
<path d="M242.228 214.435C242.228 215.568 241.484 216.487 240.568 216.487C239.652 216.487 238.908 215.568 238.908 214.435C238.908 213.303 239.652 212.383 240.568 212.383C241.484 212.383 242.228 213.303 242.228 214.435Z" fill="white"/>
<path d="M186.618 192.977C186.618 194.109 185.875 195.028 184.959 195.028C184.042 195.028 183.3 194.109 183.3 192.977C183.3 191.844 184.042 190.924 184.959 190.924C185.875 190.924 186.618 191.844 186.618 192.977Z" fill="white"/>
<path d="M323.921 187.002C323.921 187.761 323.424 188.377 322.81 188.377C322.197 188.377 321.699 187.761 321.699 187.002C321.699 186.244 322.197 185.629 322.81 185.629C323.424 185.629 323.921 186.244 323.921 187.002Z" fill="white"/>
<path d="M250.616 202.817C250.616 203.925 249.888 204.825 248.991 204.825C248.094 204.825 247.367 203.925 247.367 202.817C247.367 201.707 248.094 200.808 248.991 200.808C249.888 200.808 250.616 201.707 250.616 202.817Z" fill="#2E5B06"/>
<path d="M223.145 231.126C223.145 232.234 222.417 233.134 221.52 233.134C220.623 233.134 219.896 232.234 219.896 231.126C219.896 230.017 220.623 229.118 221.52 229.118C222.417 229.118 223.145 230.017 223.145 231.126Z" fill="#2E5B06"/>
<path d="M312.739 232.933C312.739 234.041 312.011 234.941 311.114 234.941C310.217 234.941 309.49 234.041 309.49 232.933C309.49 231.824 310.217 230.924 311.114 230.924C312.011 230.924 312.739 231.824 312.739 232.933Z" fill="#2E5B06"/>
<path d="M274.131 204.016C274.131 204.596 273.751 205.065 273.282 205.065C272.814 205.065 272.434 204.596 272.434 204.016C272.434 203.436 272.814 202.966 273.282 202.966C273.751 202.966 274.131 203.436 274.131 204.016Z" fill="#2E5B06"/>
<path d="M314.736 207.588C314.736 208.167 314.356 208.637 313.887 208.637C313.419 208.637 313.039 208.167 313.039 207.588C313.039 207.008 313.419 206.538 313.887 206.538C314.356 206.538 314.736 207.008 314.736 207.588Z" fill="#2E5B06"/>
<path d="M230.477 214.616C230.477 215.195 230.097 215.665 229.628 215.665C229.16 215.665 228.78 215.195 228.78 214.616C228.78 214.036 229.16 213.566 229.628 213.566C230.097 213.566 230.477 214.036 230.477 214.616Z" fill="#2E5B06"/>
<path d="M195.563 217.148C195.563 217.727 195.183 218.197 194.714 218.197C194.246 218.197 193.866 217.727 193.866 217.148C193.866 216.568 194.246 216.097 194.714 216.097C195.183 216.097 195.563 216.568 195.563 217.148Z" fill="#2E5B06"/>
<path d="M151.055 190.815C151.055 191.739 150.448 192.488 149.7 192.488C148.953 192.488 148.347 191.739 148.347 190.815C148.347 189.89 148.953 189.142 149.7 189.142C150.448 189.142 151.055 189.89 151.055 190.815Z" fill="#29530D"/>
<path d="M138.667 218.808C138.667 219.917 137.939 220.816 137.042 220.816C136.145 220.816 135.418 219.917 135.418 218.808C135.418 217.699 136.145 216.8 137.042 216.8C137.939 216.8 138.667 217.699 138.667 218.808Z" fill="#2E5B06"/>
</g>
</g>
</g>
</g>
<defs>
<filter id="filter0_f_36_1539" x="223.508" y="87.2586" width="107.464" height="117.207" filterUnits="userSpaceOnUse" color-interpolation-filters="sRGB">
<feFlood flood-opacity="0" result="BackgroundImageFix"/>
<feBlend mode="normal" in="SourceGraphic" in2="BackgroundImageFix" result="shape"/>
<feGaussianBlur stdDeviation="12.1756" result="effect1_foregroundBlur_36_1539"/>
</filter>
<filter id="filter1_f_36_1539" x="290.958" y="36.8062" width="102.671" height="111.619" filterUnits="userSpaceOnUse" color-interpolation-filters="sRGB">
<feFlood flood-opacity="0" result="BackgroundImageFix"/>
<feBlend mode="normal" in="SourceGraphic" in2="BackgroundImageFix" result="shape"/>
<feGaussianBlur stdDeviation="12.1756" result="effect1_foregroundBlur_36_1539"/>
</filter>
<filter id="filter2_f_36_1539" x="233.24" y="-21.2434" width="146.304" height="152.095" filterUnits="userSpaceOnUse" color-interpolation-filters="sRGB">
<feFlood flood-opacity="0" result="BackgroundImageFix"/>
<feBlend mode="normal" in="SourceGraphic" in2="BackgroundImageFix" result="shape"/>
<feGaussianBlur stdDeviation="12.1756" result="effect1_foregroundBlur_36_1539"/>
</filter>
<filter id="filter3_f_36_1539" x="212.185" y="32.2943" width="122.21" height="140.916" filterUnits="userSpaceOnUse" color-interpolation-filters="sRGB">
<feFlood flood-opacity="0" result="BackgroundImageFix"/>
<feBlend mode="normal" in="SourceGraphic" in2="BackgroundImageFix" result="shape"/>
<feGaussianBlur stdDeviation="12.1756" result="effect1_foregroundBlur_36_1539"/>
</filter>
<linearGradient id="paint0_linear_36_1539" x1="326.037" y1="182.794" x2="351.157" y2="182.696" gradientUnits="userSpaceOnUse">
<stop stop-color="white"/>
<stop offset="1"/>
</linearGradient>
<clipPath id="clip0_36_1539">
<rect width="371" height="258" fill="white"/>
</clipPath>
</defs>
</svg>
