<svg width="375" height="8" viewBox="0 0 375 8" fill="none" xmlns="http://www.w3.org/2000/svg">
<path d="M372.412 4.84005C371.903 4.84005 371.395 4.84005 370.886 4.84005C370.711 4.84005 370.562 4.82336 370.402 4.8877C369.955 5.06706 369.584 5.07827 369.111 5.07827C368.442 5.07827 367.76 5.17356 367.08 5.17356C366.439 5.17356 365.661 4.97609 365.031 5.14974C364.76 5.22451 364.522 5.17666 364.242 5.17356C363.737 5.168 363.237 5.12182 362.743 5.00945C362.254 4.89847 361.805 4.83468 361.318 4.6733C360.835 4.5136 360.624 4.59491 360.234 4.98299C359.96 5.25451 359.725 5.56696 359.437 5.81411C359.304 5.92846 358.914 5.80913 358.794 5.79029C358.107 5.68192 357.477 5.56162 356.835 5.26885C356.445 5.09143 356.076 5.07827 355.659 5.07827C354.892 5.07827 354.149 5.01815 353.385 4.94593C352.918 4.90173 352.47 4.72221 352.059 4.4589C351.748 4.25961 351.599 4.07103 351.221 4.07775C350.854 4.08428 350.494 4.32049 350.178 4.5039C349.953 4.63483 349.711 4.72572 349.485 4.85064C349.437 4.87675 349.409 4.8877 349.355 4.8877C348.953 4.8877 348.551 4.8877 348.149 4.8877C347.817 4.8877 347.485 4.8877 347.153 4.8877C346.925 4.8877 346.708 4.92075 346.482 4.93799C346.113 4.966 345.752 5.14794 345.393 5.17356C345.202 5.18714 344.986 5.19062 344.8 5.14709C344.646 5.11098 344.504 5.03063 344.347 5.03063" stroke="#7D3F0F" stroke-width="3" stroke-linecap="square"/>
<path d="M373.232 5.12589C373.488 4.98856 374.063 4.57798 374.225 4.93532" stroke="#7D3F0F" stroke-width="3" stroke-linecap="square"/>
<path d="M343.872 4.88756C343.177 4.88756 342.488 4.74462 341.799 4.74462C341.012 4.74462 340.186 4.8117 339.407 4.67316C338.715 4.54992 337.998 4.69698 337.309 4.69698C336.983 4.69698 336.687 4.6919 336.368 4.79227C336.058 4.89 335.799 5.03049 335.474 5.03049C335.191 5.03049 334.901 4.86107 334.665 4.69698C334.431 4.53424 334.141 4.56918 333.898 4.43494C333.529 4.23177 333.225 4.32419 332.883 4.55405C332.667 4.6991 332.605 4.70041 332.338 4.68639C331.85 4.66073 331.364 4.64934 330.875 4.64934C330.21 4.64934 329.511 5.22828 328.843 4.98284C328.386 4.81479 327.889 4.74462 327.409 4.74462C327.158 4.74462 327.068 4.57507 326.826 4.51699C326.605 4.46395 326.316 4.41895 326.085 4.46141C325.859 4.50292 325.612 4.6636 325.392 4.74462" stroke="#7D3F0F" stroke-width="3" stroke-linecap="square"/>
<path d="M324.787 4.41112C324.097 4.41112 323.404 4.43169 322.714 4.41112C322.26 4.39756 321.861 4.00001 321.429 3.98232C320.905 3.96092 320.54 4.83444 320.124 5.11519C319.799 5.33408 319.482 5.41164 319.087 5.41164C318.655 5.41164 318.316 5.41252 317.931 5.17342C317.714 5.03833 317.514 4.79854 317.274 4.73404C316.768 4.59809 316.319 4.5064 315.796 4.5064C315.475 4.5064 315.19 4.53619 314.875 4.5911C314.469 4.6618 314.013 4.60169 313.604 4.60169C313.152 4.60169 312.709 4.64934 312.265 4.64934C311.992 4.64934 311.773 4.59823 311.565 4.78168C311.517 4.82406 311.366 4.78972 311.306 4.79227C311.203 4.79665 311.063 4.84704 310.97 4.89814C310.808 4.98773 310.715 5.12478 310.548 5.18401C310.38 5.24354 310.199 5.35458 310.02 5.364C309.869 5.37192 309.772 4.94083 309.718 4.80286C309.591 4.47735 309.285 4.55405 309.018 4.55405C308.693 4.55405 308.442 4.77904 308.13 4.79227C307.966 4.79924 307.588 4.85013 307.506 5.03049C307.417 5.22843 307.32 5.43979 307.257 5.64986" stroke="#7D3F0F" stroke-width="3" stroke-linecap="square"/>
<path d="M306.221 5.41185C305.161 5.41185 304.043 5.36326 303.026 5.0307C302.65 4.90791 302.261 5.02301 301.884 5.0307C301.62 5.03609 301.385 5.0578 301.172 4.8613C301.05 4.74938 300.949 4.51387 300.771 4.50662C300.406 4.49168 299.996 4.85203 299.658 4.98306C299.394 5.08576 299.23 5.34158 298.977 5.44891C298.808 5.52072 298.623 5.52213 298.44 5.50714C298.217 5.48895 298.099 5.1381 297.866 5.08099C297.643 5.02626 297.399 5.06016 297.168 5.00688C296.831 4.92901 296.502 4.84012 296.158 4.84012C295.8 4.84012 295.412 4.79192 295.06 4.86395C294.645 4.94869 294.143 5.2321 293.721 5.09687C293.475 5.01809 293.255 4.81788 293.009 4.72101C292.797 4.63753 292.497 4.69719 292.275 4.69719C291.982 4.69719 291.458 4.89067 291.195 4.69719" stroke="#7D3F0F" stroke-width="3" stroke-linecap="square"/>
<path d="M290.504 4.07771C289.488 4.07771 288.488 4.08732 287.482 3.99301C287.012 3.94902 286.404 3.88866 285.97 4.11477C285.757 4.22616 285.527 4.37515 285.304 4.45886C284.805 4.64573 284.308 4.83775 283.812 5.03059C283.603 5.11145 283.422 5.22117 283.198 5.22117C282.789 5.22117 281.717 5.33372 281.696 4.66532C281.689 4.43569 281.643 4.45886 281.451 4.45886C281.202 4.45886 280.952 4.45886 280.703 4.45886C280.386 4.45886 280.078 4.41122 279.763 4.41122C279.589 4.41122 279.405 4.39047 279.235 4.42181C278.863 4.49011 278.553 4.75664 278.189 4.8506C277.809 4.94883 277.462 5.12588 277.066 5.12588C276.755 5.12588 276.526 4.9353 276.212 4.9353" stroke="#7D3F0F" stroke-width="3" stroke-linecap="square"/>
<path d="M275.219 4.36359C274.417 4.36359 273.639 4.09457 272.874 3.85009C272.676 3.787 272.345 3.61246 272.13 3.72039C271.988 3.79146 271.852 3.7732 271.72 3.8898C271.296 4.26424 270.852 4.55519 270.34 4.75533C269.344 5.14481 268.358 5.41355 267.296 5.36147C267.129 5.35328 266.921 5.33463 266.783 5.21589C266.618 5.07326 266.707 4.7855 266.565 4.64416C266.497 4.57616 266.337 4.60157 266.26 4.59916C266.03 4.59191 265.801 4.5732 265.572 4.55416C265.119 4.51655 264.668 4.4637 264.216 4.41123C263.746 4.35658 263.255 3.96916 262.924 3.61187C262.78 3.457 262.666 3.2803 262.525 3.12484C262.378 2.96268 262.271 3.07616 262.108 3.17514C261.454 3.57301 260.69 3.75459 259.987 3.99302C259.622 4.11698 259.267 4.25883 258.898 4.41123" stroke="#7D3F0F" stroke-width="3" stroke-linecap="square"/>
<path d="M258.164 4.31585C257.912 4.31585 257.733 4.35274 257.56 4.11469C257.237 3.66956 256.975 3.34775 256.447 3.18298C256.297 3.13605 255.868 2.95833 255.703 3.04005C255.154 3.31291 254.583 3.45762 253.995 3.60119C253.406 3.74516 252.799 3.77819 252.196 3.79177C251.605 3.80508 251.101 4.05748 250.541 4.22056C250.279 4.29686 250.009 4.35893 249.735 4.30526C249.623 4.28318 249.242 4.18687 249.184 4.31585" stroke="#7D3F0F" stroke-width="3" stroke-linecap="square"/>
<path d="M247.543 4.84014C246.844 4.84014 246.144 4.53683 245.525 4.21548C244.934 3.90827 244.322 3.61443 243.743 3.27848C243.649 3.2237 243.583 3.2268 243.477 3.24407C243.058 3.31204 242.646 3.4155 242.227 3.48229C241.713 3.56426 241.203 3.67365 240.687 3.74433C240.347 3.79093 239.955 3.80035 239.632 3.93491C239.227 4.10356 238.881 4.45337 238.507 4.68927C238.193 4.88696 237.806 5.07087 237.439 5.07836C236.887 5.08964 236.73 4.54706 236.36 4.20224C235.931 3.80259 235.201 3.89098 234.671 3.73374C234.021 3.54084 233.561 3.10065 232.853 3.23083C232.592 3.27887 232.338 3.30249 232.083 3.39229C231.706 3.52529 231.388 3.75302 231.039 3.95079C230.705 4.1403 230.334 4.25311 229.96 4.30547C229.527 4.3662 229.095 4.38406 228.763 4.05402C228.644 3.93577 228.42 3.40701 228.286 3.50611" stroke="#7D3F0F" stroke-width="3" stroke-linecap="square"/>
<path d="M227.983 5.45949C227.695 5.41182 227.377 5.06791 227.16 4.87982C226.731 4.50715 226.338 4.08706 225.887 3.74431C225.706 3.60675 225.52 3.46392 225.306 3.40021C224.972 3.30046 224.672 3.20526 224.318 3.17258C223.089 3.05903 221.979 3.44498 220.95 4.19428C220.612 4.44069 220.153 4.83344 219.717 4.84012C219.073 4.84999 218.46 4.82822 217.837 4.62837C216.912 4.33232 216.095 3.4108 215.116 3.4108C214.317 3.4108 213.524 3.60071 212.737 3.73372C212.497 3.77426 212.21 3.77815 211.991 3.90842C211.882 3.9728 211.81 4.06418 211.715 4.15193C211.528 4.32437 211.286 4.42579 211.055 4.50397C210.31 4.75688 209.425 4.68879 208.669 4.52779C208.355 4.46099 208.1 4.2638 207.829 4.0884C207.615 3.9501 207.396 3.87836 207.174 3.76813C206.743 3.55383 206.221 3.6984 205.749 3.64637C205.268 3.59322 204.847 3.79195 204.365 3.79195" stroke="#7D3F0F" stroke-width="3" stroke-linecap="square"/>
<path d="M203.934 4.83995C203.147 4.61142 202.417 4.08119 201.794 3.5165C201.629 3.36712 201.563 3.31534 201.362 3.31534C200.99 3.31534 200.555 3.58429 200.199 3.69649C199.47 3.92626 198.728 4.20573 197.985 4.36351C197.349 4.49839 196.541 4.47197 196.118 3.83678C195.977 3.62393 195.771 3.16099 195.471 3.23064C195.236 3.28522 194.995 3.50919 194.78 3.62767C194.525 3.76817 194.264 3.87745 194.005 4.00618C193.838 4.08898 193.728 4.22058 193.542 4.22058C192.863 4.22058 192.235 4.03612 191.585 3.85001C191.287 3.76487 190.984 3.64885 190.673 3.64885C190.427 3.64885 190.132 3.70223 189.906 3.57738C189.811 3.52503 189.698 3.39687 189.599 3.50592C189.457 3.66218 189.346 3.75328 189.169 3.86325C189.043 3.94153 188.913 3.93272 188.778 3.98236" stroke="#7D3F0F" stroke-width="3" stroke-linecap="square"/>
<path d="M189.34 3.83946C188.196 3.83946 187.103 3.76836 185.984 3.48213C185.532 3.36669 185.096 3.22565 184.633 3.16186C183.337 2.98311 181.913 3.29274 180.709 3.85005C180.324 4.02809 180.316 4.27105 180.272 4.69705C180.259 4.82916 180.31 5.26878 180.116 5.26878C179.555 5.26878 178.852 4.6867 178.425 4.3159C178.119 4.05014 177.88 3.8065 177.49 3.72035C177.129 3.64077 176.825 3.88711 176.473 3.88711" stroke="#7D3F0F" stroke-width="3" stroke-linecap="square"/>
<path d="M174.875 3.93481C174.55 3.93481 174.199 3.97077 173.882 3.87658C173.529 3.77163 173.176 3.58374 172.846 3.41072C172.732 3.35115 172.633 3.37245 172.51 3.35249C172.245 3.30933 171.975 3.23577 171.714 3.16986C170.876 2.95852 170.094 2.75914 169.262 3.05075C168.693 3.25023 168.083 3.42529 167.573 3.78129C167.33 3.95117 167.145 4.18937 166.868 4.29743C166.392 4.48348 165.912 4.71008 165.412 4.80563C164.992 4.88594 164.544 4.88769 164.119 4.88769C163.558 4.88769 163.096 4.89136 162.565 4.67594C162.001 4.44722 161.422 3.98999 160.819 3.92951C160.15 3.86243 159.468 3.64264 158.832 3.41337C158.589 3.32536 158.349 3.22276 158.115 3.10633C158.033 3.06537 157.938 2.98466 157.844 2.98193C156.558 2.94458 155.262 2.86365 153.977 2.99252C153.637 3.02663 153.32 3.15955 152.984 3.22015C152.329 3.33852 151.662 3.31544 151.001 3.31544C150.257 3.31544 149.501 3.26696 148.763 3.37367C148.403 3.42555 148.101 3.58731 147.765 3.71247C147.544 3.7945 147.255 3.7422 147.031 3.73364C146.613 3.71776 146.196 3.70856 145.779 3.69394C145.385 3.68016 144.941 3.65368 144.562 3.54307C143.718 3.29623 142.941 2.98986 142.104 3.32602C141.659 3.50431 141.166 3.54701 140.744 3.76805C140.556 3.86595 140.371 3.93481 140.161 3.93481" stroke="#7D3F0F" stroke-width="3" stroke-linecap="square"/>
<path d="M139.945 4.26828C139.371 4.26828 138.796 4.27434 138.222 4.23652C137.522 4.19032 136.879 3.91713 136.188 3.85007C135.783 3.81072 135.397 3.72722 134.996 3.64891C134.418 3.53584 133.844 3.45972 133.295 3.21747C132.964 3.071 132.707 2.88113 132.341 2.84955C131.936 2.8147 131.528 2.76646 131.122 2.8019C130.645 2.84358 130.207 3.05118 129.776 3.2704C129.428 3.44802 129.108 3.72625 128.743 3.86066C128.166 4.0726 127.383 3.7157 126.886 3.43186C126.471 3.19514 126.079 2.8641 125.619 2.74367C125.271 2.65224 124.933 2.69116 124.583 2.6378C124.405 2.61061 124.241 2.47794 124.075 2.46046C123.796 2.43115 123.415 2.7852 123.18 2.91837C122.564 3.26726 122.037 3.75178 121.465 4.17299" stroke="#7D3F0F" stroke-width="3" stroke-linecap="square"/>
<path d="M120.663 4.05266C119.875 4.05266 119.099 3.99516 118.317 3.90665C118.121 3.88446 117.93 3.94002 117.733 3.94002C116.432 3.94002 115.099 3.58255 113.854 3.20159C113.176 2.99394 112.474 2.66341 111.759 2.66341C111.51 2.66341 111.336 2.74507 111.111 2.85323C110.921 2.94452 110.678 3.11362 110.47 3.14318C110.098 3.19618 109.63 3.03912 109.26 3.00134C108.119 2.88465 106.977 2.96307 105.835 2.88869C105.177 2.8459 104.53 2.71232 103.878 2.61126C103.523 2.55608 103.173 2.77771 102.844 2.90121C102.078 3.18901 101.293 3.61325 100.47 3.48945C99.8807 3.4008 99.2853 3.39431 98.7099 3.22036C98.1007 3.0362 97.49 2.86946 96.8894 2.65089C96.5171 2.5154 96.1497 2.35768 95.7722 2.23996C95.6693 2.20788 95.6121 2.19863 95.5283 2.26708C95.2132 2.52467 94.8556 2.74794 94.4943 2.91581C94.2918 3.00988 94.0718 3.03647 93.8648 3.11398C93.807 3.1356 93.7959 3.21406 93.7627 3.22453C93.6158 3.27083 93.4482 3.36234 93.3128 3.44356C93.2652 3.47207 93.1018 3.48945 93.1559 3.48945C93.4577 3.48945 93.7595 3.48837 94.0614 3.48945C94.9695 3.49272 95.8703 3.63964 96.776 3.63964" stroke="#7D3F0F" stroke-width="3" stroke-linecap="square"/>
<path d="M92.5479 5.01925C91.0769 5.01925 90.8631 3.20665 89.6579 2.76334C89.2273 2.60497 88.6884 2.58498 88.2361 2.62491C87.6686 2.67501 87.0879 2.88369 86.5262 2.98893C85.5502 3.17182 84.594 3.33933 83.6036 3.3991C81.3957 3.53234 79.1734 3.31391 76.9732 3.58367C75.2518 3.79472 73.8813 2.63079 72.3129 2.02504C71.827 1.83738 71.1437 1.97377 70.6355 1.97377C70.1732 1.97377 69.6585 1.89954 69.2137 2.06606C68.2611 2.42272 67.4205 2.95976 66.4352 3.24528C65.6807 3.46394 64.8748 3.49289 64.1306 3.74774C63.9239 3.81851 63.7418 3.81952 63.5265 3.81952C63.432 3.81952 63.3552 3.82741 63.2756 3.89129C63.0623 4.06247 63.8027 3.86497 64.0655 3.84002C65.4211 3.71135 66.7141 4.17978 68.0428 4.37324C68.7822 4.48089 69.4949 4.57409 70.2174 4.76289C70.3478 4.79699 70.7154 4.85261 70.8028 4.9731C71.0253 5.27996 69.3652 5.0601 69.2927 5.05514C67.2355 4.91424 65.2259 4.55781 63.1595 4.55781C63.0398 4.55781 63.618 4.47578 63.6985 4.47578C64.4469 4.47578 65.2046 4.58502 65.938 4.74239C67.5428 5.0867 69.1658 5.28291 70.8028 5.38327C71.4744 5.42444 72.1518 5.38411 72.8054 5.20382C73.0605 5.13345 74.2025 5.01925 73.3583 5.01925C72.0674 5.01925 70.9404 4.72754 69.7155 4.28095C68.164 3.71524 66.6464 3.22492 65.0041 3.08122C63.9825 2.99183 62.8739 2.89492 61.8445 3.02995C61.3593 3.09361 60.9013 3.26579 60.4135 3.26579C59.5086 3.26579 58.1373 3.03316 57.2539 3.35808" stroke="#7D3F0F" stroke-width="3" stroke-linecap="square"/>
<path d="M59.0938 5.20374C57.3595 5.20374 55.4976 5.32441 53.8388 4.65002C53.657 4.57614 53.4036 4.50226 53.258 4.35265C53.1338 4.22507 53.061 4.02291 52.9048 3.93223C52.7188 3.82416 52.3493 3.91172 52.1428 3.91172C51.249 3.91172 50.3595 3.82265 49.4758 3.68613C48.7589 3.57538 48.0995 3.50202 47.4035 3.26571C46.3714 2.9153 45.386 2.74604 44.2951 2.8094C43.8281 2.83652 43.3002 2.85652 42.8686 3.06063C42.7405 3.1212 42.5074 3.11461 42.4504 2.98885" stroke="#7D3F0F" stroke-width="3" stroke-linecap="square"/>
<path d="M51.2321 4.28099C48.8738 4.28099 46.5175 4.2818 44.1603 4.18871C42.9361 4.14036 41.1753 4.3922 40.0296 3.68113C39.7217 3.48999 39.5175 3.04861 39.2258 2.8044C38.3849 2.10044 37.189 1.81622 36.1499 1.78924C35.6058 1.77512 35.1051 1.96943 34.5701 2.0456C33.9977 2.1271 33.4078 2.03596 32.8324 2.07123C32.5751 2.08701 31.9846 2.05515 31.7637 2.2353C31.4 2.53194 31.0927 2.9105 30.7415 3.22482C30.6107 3.34185 30.0098 3.69147 30.026 3.93235C30.0479 4.25965 32.0891 4.49527 32.3027 4.53735C33.2574 4.72547 34.2449 4.65014 35.2113 4.65014C36.0297 4.65014 36.8315 4.60479 37.646 4.56298C38.1351 4.53788 38.6037 4.37328 39.0864 4.37328C41.1148 4.37328 35.0371 4.65915 33.0182 4.87573C32.347 4.94774 31.527 4.99121 30.9088 4.65014" stroke="#7D3F0F" stroke-width="3" stroke-linecap="square"/>
<path d="M30.2396 4.46554C28.3676 4.46554 26.9708 3.35034 25.6907 1.9379C25.382 1.59719 24.5659 1.79552 24.1992 1.8815C23.428 2.06235 22.6622 2.18153 21.9179 2.48137C21.0585 2.82757 20.157 3.15128 19.2508 3.30682C17.8962 3.53934 16.637 2.74118 15.2875 3.17352C15.2133 3.19727 14.5647 3.49191 14.8507 3.39398C16.8478 2.71008 19.0409 2.57748 21.114 2.48649C22.6839 2.4176 24.301 2.33843 25.8719 2.45573C26.7303 2.51982 27.5528 2.6198 28.4182 2.6198C29.2189 2.6198 30.0196 2.6198 30.8204 2.6198C30.9861 2.6198 32.0517 2.63515 31.9216 2.71721C31.4827 2.9939 30.853 3.03086 30.3697 3.15301C29.8603 3.28175 29.3678 3.34591 28.8503 3.40936C27.8218 3.53546 26.6906 3.61395 25.7511 4.13228C24.9358 4.5821 24.2573 4.47345 23.4094 4.03486C22.9645 3.80476 22.3367 3.40077 22.048 2.9428C21.7664 2.49624 21.4975 2.03278 21.0025 1.85074C20.4596 1.65106 19.7512 1.6675 19.1997 1.78921C18.7086 1.8976 18.2859 2.15836 17.7779 2.15836C17.3701 2.15836 17.1782 1.68335 16.8115 1.60977C15.9629 1.43952 14.4227 2.22417 13.8471 2.89666C13.4385 3.374 12.7745 3.17352 12.1976 3.17352C12.0184 3.17352 11.833 3.18763 11.654 3.17352C11.283 3.14428 10.9944 2.81416 10.6039 2.80437C10.3546 2.79812 10.1004 2.79379 9.85117 2.80437C9.63158 2.81369 9.65165 3.08877 9.49805 3.17352" stroke="#7D3F0F" stroke-width="3" stroke-linecap="square"/>
<path d="M11.8162 4.77811C8.33778 4.77811 4.7649 4.40273 1.58545 3.23328" stroke="#7D3F0F" stroke-width="3" stroke-linecap="square"/>
<path d="M11.665 3.18337C10.605 3.18337 9.51704 3.11542 8.50826 2.71469C7.90066 2.47333 7.27788 2.54307 6.66244 2.3733C6.33683 2.28347 6.08913 2.246 5.75002 2.246C4.94429 2.246 3.7934 2.16248 3.07568 2.55846" stroke="#7D3F0F" stroke-width="3" stroke-linecap="square"/>
<path d="M56.4051 3.91248C55.8679 3.91248 55.3862 3.89422 54.8949 3.62316C54.5671 3.44232 54.4091 3.60002 54.0454 3.60002" stroke="#7D3F0F" stroke-width="3" stroke-linecap="square"/>
<path d="M0 5.89435L375 5.89435" stroke="#7D3F0F" stroke-width="3"/>
</svg>
