<svg width="50" height="50" viewBox="0 0 50 50" fill="none" xmlns="http://www.w3.org/2000/svg">
<g clip-path="url(#clip0_36_6022)">
<mask id="mask0_36_6022" style="mask-type:luminance" maskUnits="userSpaceOnUse" x="0" y="0" width="50" height="50">
<path d="M50 0H0V50H50V0Z" fill="white"/>
</mask>
<g mask="url(#mask0_36_6022)">
<path d="M15.2859 22.9044C14.4755 23.6215 13.3741 24.0579 12.1583 24.0579C9.69579 24.0579 7.69043 22.2603 7.69043 20.0366C7.69043 18.3014 8.9165 16.826 10.6206 16.2545C10.0906 15.5584 9.78933 14.7272 9.78933 13.8232C9.78933 11.4333 11.9402 9.50071 14.5898 9.50071C14.8495 9.50071 15.0989 9.5215 15.3482 9.55265C15.2028 9.13706 15.13 8.69022 15.13 8.22269C15.13 5.76014 17.3432 3.77557 20.076 3.77557C21.6761 3.77557 23.0892 4.46128 23.9931 5.52113C24.7205 5.0224 25.6348 4.73144 26.622 4.73144C29.0326 4.73144 30.9963 6.49784 30.9963 8.66947C30.9963 10.3735 29.7911 11.8282 28.1078 12.3685C28.1285 12.4932 28.1389 12.6283 28.1389 12.7529C28.1389 14.1661 26.9233 15.3298 25.3751 15.4545C25.24 17.065 24.0243 18.4054 22.3827 18.8937C22.4762 19.2262 22.5385 19.5691 22.5385 19.9224C22.5385 22.094 20.5851 23.8604 18.1641 23.8604C17.073 23.8604 16.0756 23.4968 15.3067 22.9044H15.2859Z" fill="#49A14C"/>
<path d="M27.0094 21.776C29.0288 21.776 27.9358 18.4971 33.4111 18.4034C34.962 18.3722 34.7226 18.4659 35.3472 18.7468C38.4076 16.0404 43.2166 18.2785 43.2166 21.8177C43.2166 22.182 43.1541 22.5254 43.0292 22.8585H43.0917C45.4858 22.8585 47.4219 24.4512 47.4219 26.4081C47.4219 28.3651 45.6004 29.8536 43.3207 29.9577C43.3415 30.093 43.3519 30.2283 43.3519 30.3637C43.3519 32.3206 41.4158 33.9132 39.0217 33.9132C38.0432 33.9132 37.1376 33.6425 36.4089 33.1949C35.3992 34.1838 33.9003 34.8084 32.2035 34.8084C29.1745 34.8084 26.7282 32.7994 26.7282 30.322C26.7282 30.0202 26.77 29.7182 26.8324 29.4268C24.8442 29.1041 23.3453 27.7821 23.3453 25.9501C23.3453 24.1181 24.99 21.7968 27.0094 21.7968V21.776Z" fill="#49A14C"/>
<path d="M34.7948 13.8965C34.9056 13.5564 34.965 13.1992 34.965 12.8306C34.965 10.5476 32.6992 8.6969 29.9042 8.6969C27.1092 8.6969 24.8434 10.5476 24.8434 12.8306C24.8434 13.0165 24.8587 13.1995 24.8878 13.379C22.5004 13.7111 20.6827 15.4088 20.6827 17.4535C20.6827 19.7365 22.9486 21.5872 25.7436 21.5872C26.9743 21.5872 28.1024 21.2282 28.9796 20.6316C29.8568 21.2282 30.9849 21.5872 32.2157 21.5872C35.0107 21.5872 37.2765 19.7365 37.2765 17.4535C37.2765 15.94 36.2805 14.6167 34.7948 13.8965Z" fill="#49A14C"/>
<path d="M20.1021 17.9701C20.7691 18.1265 21.3214 18.512 21.6756 19.0122C22.3738 18.5224 23.3116 18.314 24.2495 18.5328C24.7497 18.6474 25.1873 18.8663 25.5624 19.1581C26.0209 19.0539 26.521 19.0539 27.0108 19.1581C28.6156 19.5228 29.668 20.9712 29.47 22.4613C30.6267 23.1073 31.2728 24.3891 30.9809 25.6707C30.7205 26.8066 29.7826 27.6298 28.6364 27.8486C28.8553 28.38 28.9281 28.9636 28.7927 29.5471C28.4384 31.1205 26.7712 32.0897 25.0831 31.7042C24.4058 31.5478 23.8222 31.2039 23.395 30.735C22.9782 32.2355 21.363 33.1421 19.7166 32.767C18.8413 32.569 18.1223 32.0375 17.6846 31.3603C17.0699 32.3085 15.8507 32.819 14.6106 32.5377C14.1209 32.4231 13.6936 32.2043 13.3394 31.9125C12.7142 32.8087 11.5263 33.2776 10.3279 33.0067C9.32759 32.7774 8.56687 32.0897 8.23347 31.2457C7.52485 31.9855 6.40991 32.3397 5.28451 32.0792C3.62766 31.7042 2.56478 30.1411 2.91909 28.5988C3.15874 27.536 4.01321 26.7545 5.06567 26.494C5.01358 26.1918 5.01358 25.8896 5.0761 25.577C5.36784 24.2953 6.71209 23.5137 8.08757 23.8264C8.32722 23.8784 8.55649 23.9722 8.76486 24.0765C8.74405 23.8264 8.76486 23.5658 8.82743 23.3053C9.17126 21.8152 10.7447 20.8983 12.3495 21.263C12.6204 21.3255 12.8809 21.4193 13.1205 21.5443C13.1205 21.4193 13.1413 21.2943 13.1727 21.1691C13.4644 19.8874 14.8087 19.1059 16.1842 19.4186C16.5176 19.4915 16.8198 19.627 17.0803 19.8042C17.0803 19.7729 17.0907 19.7416 17.1011 19.7104C17.3929 18.4286 18.7371 17.6472 20.1126 17.9597L20.1021 17.9701Z" fill="#49A14C"/>
<path d="M11.2948 19.425C12.2611 19.425 13.217 20.2043 13.1546 21.1915C11.8247 21.098 11.6377 20.62 11.2948 19.425Z" fill="#AAD196"/>
<path d="M13.0627 15.8918C13.6239 16.3386 14.5278 16.349 14.9642 15.7464C14.1538 15.1853 13.8213 15.3724 13.0627 15.8918Z" fill="#AAD196"/>
<path d="M15.2234 12.7628C14.8805 13.3966 15.0468 14.2902 15.7118 14.6018C16.117 13.7084 15.8676 13.407 15.2234 12.7628Z" fill="#AAD196"/>
<path d="M13.001 13.6665C13.2711 14.6016 14.279 15.2978 15.2141 14.9653C14.7569 13.7184 14.2374 13.6665 13.001 13.6665Z" fill="#AAD196"/>
<path d="M18.5679 17.5721C19.9853 17.5721 21.1361 18.7229 21.1361 20.1403C21.1361 21.5577 19.9853 22.7085 18.5679 22.7085C17.1505 22.7085 15.9997 21.5577 15.9997 20.1403C15.9997 18.7229 17.1505 17.5721 18.5679 17.5721ZM25.4165 11.6258C27.8172 11.6258 29.7663 13.5749 29.7663 15.9756C29.7663 18.3763 27.8172 20.3254 25.4165 20.3254C23.0159 20.3254 21.0667 18.3763 21.0667 15.9756C21.0667 13.5749 23.0159 11.6258 25.4165 11.6258ZM21.2518 12.7827C23.8312 12.7827 25.9255 14.877 25.9255 17.4564C25.9255 20.0358 23.8312 22.1301 21.2518 22.1301C18.6724 22.1301 16.5781 20.0358 16.5781 17.4564C16.5781 14.877 18.6724 12.7827 21.2518 12.7827ZM29.2573 14.1015C31.9261 14.1015 34.093 16.2684 34.093 18.9372C34.093 21.606 31.9261 23.7729 29.2573 23.7729C26.5885 23.7729 24.4216 21.606 24.4216 18.9372C24.4216 16.2684 26.5885 14.1015 29.2573 14.1015ZM18.6604 19.0297C21.2909 19.0297 23.4267 21.1655 23.4267 23.796C23.4267 26.4265 21.2909 28.5623 18.6604 28.5623C16.0299 28.5623 13.8942 26.4265 13.8942 23.796C13.8942 21.1655 16.0299 19.0297 18.6604 19.0297ZM31.2934 20.9732C33.5919 20.9732 35.4581 22.8395 35.4581 25.138C35.4581 27.4365 33.5919 29.3027 31.2934 29.3027C28.9949 29.3027 27.1287 27.4365 27.1287 25.138C27.1287 22.8395 28.9949 20.9732 31.2934 20.9732ZM28.2393 25.0223C30.2441 25.0223 31.8718 26.65 31.8718 28.6548C31.8718 30.6596 30.2441 32.2874 28.2393 32.2874C26.2345 32.2874 24.6067 30.6596 24.6067 28.6548C24.6067 26.65 26.2345 25.0223 28.2393 25.0223ZM21.113 23.5878C23.6286 23.5878 25.671 25.6302 25.671 28.1458C25.671 30.6614 23.6286 32.7038 21.113 32.7038C18.5974 32.7038 16.5549 30.6614 16.5549 28.1458C16.5549 25.6302 18.5974 23.5878 21.113 23.5878ZM25.0926 14.5411C29.8428 14.5411 33.6997 18.3979 33.6997 23.1481C33.6997 27.8984 29.8428 31.7552 25.0926 31.7552C20.3424 31.7552 16.4855 27.8984 16.4855 23.1481C16.4855 18.3979 20.3424 14.5411 25.0926 14.5411Z" fill="#49A14D"/>
<path d="M23.0432 24.461H24.9689H25.2083H27.1341L28.5706 50.0574H25.2083H24.9689H21.5964L23.0432 24.461Z" fill="#67553D"/>
<path d="M35.2323 28.8238L27.165 37.3074L27.2795 34.6738C29.7778 32.5712 32.276 30.4686 34.7743 28.3658C35.1698 27.9807 35.5446 28.5012 35.2323 28.8238Z" fill="#67553D"/>
<path d="M15.5073 32.7687C18.1929 34.6112 20.8785 36.464 23.5641 38.3065C23.3455 37.4528 23.1165 36.6097 22.8979 35.7562C20.5557 34.5799 18.2033 33.4037 15.8612 32.2171C15.5281 32.0505 15.0493 32.4252 15.5073 32.7583V32.7687Z" fill="#67553D"/>
<path d="M19.3927 27.5564C20.3515 27.3897 21.4353 27.9837 21.5395 28.9737C20.216 29.1092 19.945 28.6715 19.3927 27.5564Z" fill="#AAD196"/>
<path d="M16.2637 23.1901C15.4717 23.7529 15.1383 24.9409 15.7531 25.712C16.7848 24.8679 16.6598 24.3677 16.2637 23.1901Z" fill="#AAD196"/>
<path d="M14.1702 24.0848C14.0035 24.783 14.3995 25.6063 15.1186 25.7314C15.2749 24.7622 14.9622 24.5434 14.1702 24.0848Z" fill="#AAD196"/>
<path d="M24.8177 9.94035C25.6769 10.1069 26.3908 10.585 26.8809 11.2319C27.4135 9.03215 29.5671 7.61367 31.7764 8.04203C33.9857 8.47043 35.5355 10.713 35.0872 13.0247C35.0416 13.2599 34.9776 13.481 34.9032 13.7001C35.1524 13.6741 35.4058 13.6807 35.6616 13.7303C37.0423 13.9981 37.937 15.3496 37.6654 16.7509C37.5683 17.2521 37.3358 17.6846 37.0129 18.0359C38.0024 18.4612 38.5973 19.553 38.3811 20.6678C38.1313 21.9567 36.8959 22.7995 35.6275 22.5537C35.3105 22.4922 35.0155 22.3714 34.7631 22.1951C34.7493 22.2667 34.7436 22.3505 34.7297 22.422C34.4799 23.7109 33.2445 24.5539 31.9762 24.3079C31.8842 24.29 31.7921 24.2722 31.704 24.2339C31.3367 25.3619 30.2027 26.0654 29.0162 25.8353C28.024 25.6429 27.3083 24.8462 27.1516 23.9031C27.1436 23.9441 27.1337 23.9951 27.1258 24.036C26.8521 25.4475 25.5049 26.375 24.1138 26.1053C23.3569 25.9585 22.7472 25.4901 22.3901 24.8689C21.8931 25.1334 21.3114 25.2329 20.7181 25.1179C19.3679 24.8561 18.4818 23.5699 18.67 22.2161C18.6392 22.2102 18.6086 22.2042 18.5778 22.1983C17.5857 22.0059 16.9364 21.031 17.1327 20.0184C17.2635 19.3433 17.7468 18.8214 18.3504 18.6094C17.8995 18.0339 17.6866 17.2708 17.8393 16.4833C18.113 15.0718 19.4602 14.1444 20.8514 14.4141C20.882 14.42 20.9024 14.424 20.9331 14.4299C20.7522 13.8854 20.7098 13.2829 20.8287 12.6692C21.1917 10.7974 22.9908 9.56491 24.8319 9.92186L24.8177 9.94035Z" fill="#5EB35C"/>
<path d="M30.0642 10.7473C30.2945 11.6941 29.7596 12.8108 28.7819 12.9821C28.5596 11.6655 28.9787 11.3646 30.0642 10.7473Z" fill="#AAD196"/>
<path d="M26.8353 18.0895C27.7224 18.495 28.2725 19.5994 27.8056 20.4746C26.6332 19.844 26.6607 19.3187 26.8353 18.0895Z" fill="#AAD196"/>
<path d="M22.3148 14.9178C22.3601 15.6695 22.9977 16.3769 23.7675 16.2926C23.6369 15.2697 23.2581 15.1432 22.3148 14.9178Z" fill="#AAD196"/>
<path d="M21.5995 16.8498C22.081 17.4314 23.022 17.6139 23.5808 17.0855C22.8654 16.3418 22.48 16.4687 21.5995 16.8498Z" fill="#AAD196"/>
<path d="M21.8002 23.4683C22.7768 23.4666 23.7347 22.6865 23.6717 21.6979C22.3481 21.7916 22.1486 22.2729 21.8002 23.4683Z" fill="#AAD196"/>
<path d="M21.4957 20.2261C21.8096 20.7965 22.5654 21.1128 23.1315 20.7662C22.651 20.0151 22.314 20.0558 21.4957 20.2261Z" fill="#AAD196"/>
<path d="M24.5184 24.5682C25.24 23.9122 25.4331 22.6974 24.7198 21.9965C23.8019 22.9541 23.9723 23.4436 24.5184 24.5682Z" fill="#AAD196"/>
<path d="M33.7685 15.7207C33.0217 15.5759 32.1806 16.0283 32.085 16.7952C33.1114 16.9199 33.3261 16.5794 33.7685 15.7207Z" fill="#AAD196"/>
<path d="M32.8484 20.7966C32.9606 20.0541 32.4857 19.2191 31.7149 19.144C31.631 20.1784 31.9735 20.3828 32.8484 20.7966Z" fill="#AAD196"/>
<path d="M35.7038 18.0493C35.0336 17.3463 33.8147 17.1736 33.1344 17.8908C34.1164 18.7923 34.5976 18.6095 35.7038 18.0493Z" fill="#AAD196"/>
<path d="M34.7909 20.4077C34.7035 19.4355 33.8462 18.5477 32.8724 18.6985C33.0845 20.0131 33.5757 20.1615 34.7909 20.4077Z" fill="#AAD196"/>
<path d="M14.5804 26.8871C15.5258 26.8871 16.3152 27.4792 16.5437 28.2896C16.6788 28.2688 16.8035 28.248 16.9489 28.248C18.0084 28.248 18.8707 29.0478 18.8707 30.0451C18.8707 30.8865 18.2473 31.6033 17.3956 31.7903C17.4995 32.0188 17.5617 32.2786 17.5617 32.5486C17.5617 33.5978 16.6476 34.4496 15.5258 34.4496C15.0582 34.4496 14.622 34.3041 14.2792 34.0444C13.8637 34.3873 13.3235 34.595 12.7314 34.595C11.4433 34.595 10.3941 33.6185 10.3941 32.4136C10.3941 31.9876 10.5291 31.5929 10.7473 31.2605C10.2591 30.9489 9.92664 30.4191 9.92664 29.8269C9.92664 28.8713 10.7577 28.0922 11.7861 28.0922C12.0769 28.0922 12.3574 28.1545 12.6067 28.2688C12.8456 27.4689 13.6351 26.8871 14.5597 26.8871H14.5804Z" fill="#5EB35C"/>
<path d="M12.7598 30.9469C13.1337 31.6948 14.0997 32.1311 14.8374 31.7052C14.2556 30.7184 13.8089 30.7599 12.7598 30.9469Z" fill="#AAD196"/>
<path d="M14.516 29.8256C14.329 30.4176 14.6095 31.1552 15.2224 31.311C15.4301 30.4904 15.1704 30.2722 14.516 29.8256Z" fill="#AAD196"/>
<path d="M35.2717 24.1694C36.1701 24.1694 36.9326 24.7125 37.2251 25.4856C37.4444 25.3811 37.6951 25.3184 37.9562 25.3184C38.865 25.3184 39.5963 26.0287 39.5963 26.8958C39.5963 27.3136 39.4291 27.7001 39.1471 27.9821C39.5648 28.3686 39.8155 28.9118 39.8155 29.5176C39.8155 30.7085 38.8233 31.6694 37.5906 31.6694C36.7863 31.6694 36.0865 31.2621 35.7 30.6562C35.3448 30.886 34.9166 31.0218 34.457 31.0218C33.2243 31.0218 32.2319 30.0608 32.2319 28.87C32.2319 28.0657 32.6915 27.3658 33.3705 27.0001C33.2556 26.7495 33.193 26.4779 33.193 26.1854C33.193 25.0782 34.1227 24.1694 35.2822 24.1694H35.2717Z" fill="#5EB35C"/>
</g>
</g>
<defs>
<clipPath id="clip0_36_6022">
<rect width="50" height="50" fill="white"/>
</clipPath>
</defs>
</svg>
